<svg version="1.1" height="200" width="830" viewBox="0 0 830 200" xmlns="http://www.w3.org/2000/svg">   <style>*{font-family: "Segoe UI", Tahoma, Geneva, Verdana, sans-serif;}</style>   <style>.title{font-weight: 500;font-size: 1rem;}</style>   <style>.rotate-90{transform: rotate(-90deg);transform-origin: center;transform-box: fill-box;}</style>   <style>.state{font-size: .75rem;}</style>   <style>.light{color: #ffffff;fill: #ffffff;}</style>   <style>.light-gray{color: #eff2f699;fill: #eff2f699;}</style>   <style>.dark-gray{color: #ebebf54d;fill: #ebebf54d;}</style>   <style>.gray{color: #747474;fill: #747474;}</style>   <style>.orange{color: #ffa116;fill: #ffa116;}</style>   <style>.background{color: #404040;fill: #404040;}</style><style>.level-1-block{fill: #ffffff1a;}</style><style>.level-2-block{fill: #2cb55d80;}</style><style>.level-3-block{fill: #2cbb5dff;}</style><style>.level-4-block{fill: #4cc575ff;}</style><style>.level-5-block{fill: #6bcf8eff;}</style>   <rect fill="#404040" x="0" y="0" width="830" height="200" rx="0.5rem"/>   <g text-anchor="start" text-decoration="1" class="title">       <text x="20" y="35">           <tspan class="light">Activity</tspan>           <tspan class="orange"></tspan>       </text>   </g><g class="state">   <text x="670" y="35" class="light-gray"> Total solution: </text>   <text x="750" y="35" class="light"> 201 </text>   <text x="678.88" y="180" class="light-gray" text-anchor="end">Less</text><rect x="686.64" y="171" width="8.86" height="8.86" rx="2" ry="2" class="level-1-block"/><rect x="698.16" y="171" width="8.86" height="8.86" rx="2" ry="2" class="level-2-block"/><rect x="709.68" y="171" width="8.86" height="8.86" rx="2" ry="2" class="level-3-block"/><rect x="721.2" y="171" width="8.86" height="8.86" rx="2" ry="2" class="level-4-block"/><rect x="732.72" y="171" width="8.86" height="8.86" rx="2" ry="2" class="level-5-block"/>   <text x="750" y="180" class="light-gray">More</text></g><g x="20" y="60"><g x="20" y="60"><g x="20.0" y="60"><rect x="20.0" y="60.0" width="8.86" height="8.86" rx="2" ry="2" class="level-2-block" /><rect x="20.0" y="71.52" width="8.86" height="8.86" rx="2" ry="2" class="level-2-block" /><rect x="20.0" y="83.03999999999999" width="8.86" height="8.86" rx="2" ry="2" class="level-2-block" /><rect x="20.0" y="94.56" width="8.86" height="8.86" rx="2" ry="2" class="level-2-block" /><rect x="20.0" y="106.08" width="8.86" height="8.86" rx="2" ry="2" class="level-2-block" /><rect x="20.0" y="117.6" width="8.86" height="8.86" rx="2" ry="2" class="level-2-block" /><rect x="20.0" y="129.12" width="8.86" height="8.86" rx="2" ry="2" class="level-2-block" /></g><g x="31.52" y="60"><rect x="31.52" y="60.0" width="8.86" height="8.86" rx="2" ry="2" class="level-2-block" /><rect x="31.52" y="71.52" width="8.86" height="8.86" rx="2" ry="2" class="level-2-block" /><rect x="31.52" y="83.03999999999999" width="8.86" height="8.86" rx="2" ry="2" class="level-2-block" /><rect x="31.52" y="94.56" width="8.86" height="8.86" rx="2" ry="2" class="level-2-block" /><rect x="31.52" y="106.08" width="8.86" height="8.86" rx="2" ry="2" class="level-2-block" /><rect x="31.52" y="117.6" width="8.86" height="8.86" rx="2" ry="2" class="level-2-block" /><rect x="31.52" y="129.12" width="8.86" height="8.86" rx="2" ry="2" class="level-2-block" /></g><g x="43.04" y="60"><rect x="43.04" y="60.0" width="8.86" height="8.86" rx="2" ry="2" class="level-2-block" /><rect x="43.04" y="71.52" width="8.86" height="8.86" rx="2" ry="2" class="level-4-block" /><rect x="43.04" y="83.03999999999999" width="8.86" height="8.86" rx="2" ry="2" class="level-2-block" /><rect x="43.04" y="94.56" width="8.86" height="8.86" rx="2" ry="2" class="level-2-block" /><rect x="43.04" y="106.08" width="8.86" height="8.86" rx="2" ry="2" class="level-2-block" /><rect x="43.04" y="117.6" width="8.86" height="8.86" rx="2" ry="2" class="level-2-block" /><rect x="43.04" y="129.12" width="8.86" height="8.86" rx="2" ry="2" class="level-2-block" /></g><g x="54.56" y="60"><rect x="54.56" y="60.0" width="8.86" height="8.86" rx="2" ry="2" class="level-2-block" /><rect x="54.56" y="71.52" width="8.86" height="8.86" rx="2" ry="2" class="level-2-block" /><rect x="54.56" y="83.03999999999999" width="8.86" height="8.86" rx="2" ry="2" class="level-2-block" /><rect x="54.56" y="94.56" width="8.86" height="8.86" rx="2" ry="2" class="level-2-block" /><rect x="54.56" y="106.08" width="8.86" height="8.86" rx="2" ry="2" class="level-2-block" /><rect x="54.56" y="117.6" width="8.86" height="8.86" rx="2" ry="2" class="level-2-block" /><rect x="54.56" y="129.12" width="8.86" height="8.86" rx="2" ry="2" class="level-1-block" /></g><g x="66.08" y="60"><rect x="66.08" y="60.0" width="8.86" height="8.86" rx="2" ry="2" class="level-2-block" /><rect x="66.08" y="71.52" width="8.86" height="8.86" rx="2" ry="2" class="level-2-block" /><rect x="66.08" y="83.03999999999999" width="8.86" height="8.86" rx="2" ry="2" class="level-2-block" /></g>   <text x="20.0" y="155" class="light-gray state">Jan</text></g></g><g x="79.6" y="60"><g x="79.6" y="60"><g x="79.6" y="60"><rect x="79.6" y="94.56" width="8.86" height="8.86" rx="2" ry="2" class="level-2-block" /><rect x="79.6" y="106.08" width="8.86" height="8.86" rx="2" ry="2" class="level-2-block" /><rect x="79.6" y="117.6" width="8.86" height="8.86" rx="2" ry="2" class="level-2-block" /><rect x="79.6" y="129.12" width="8.86" height="8.86" rx="2" ry="2" class="level-2-block" /></g><g x="91.11999999999999" y="60"><rect x="91.11999999999999" y="60.0" width="8.86" height="8.86" rx="2" ry="2" class="level-2-block" /><rect x="91.11999999999999" y="71.52" width="8.86" height="8.86" rx="2" ry="2" class="level-2-block" /><rect x="91.11999999999999" y="83.03999999999999" width="8.86" height="8.86" rx="2" ry="2" class="level-2-block" /><rect x="91.11999999999999" y="94.56" width="8.86" height="8.86" rx="2" ry="2" class="level-2-block" /><rect x="91.11999999999999" y="106.08" width="8.86" height="8.86" rx="2" ry="2" class="level-2-block" /><rect x="91.11999999999999" y="117.6" width="8.86" height="8.86" rx="2" ry="2" class="level-2-block" /><rect x="91.11999999999999" y="129.12" width="8.86" height="8.86" rx="2" ry="2" class="level-2-block" /></g><g x="102.63999999999999" y="60"><rect x="102.63999999999999" y="60.0" width="8.86" height="8.86" rx="2" ry="2" class="level-2-block" /><rect x="102.63999999999999" y="71.52" width="8.86" height="8.86" rx="2" ry="2" class="level-2-block" /><rect x="102.63999999999999" y="83.03999999999999" width="8.86" height="8.86" rx="2" ry="2" class="level-2-block" /><rect x="102.63999999999999" y="94.56" width="8.86" height="8.86" rx="2" ry="2" class="level-2-block" /><rect x="102.63999999999999" y="106.08" width="8.86" height="8.86" rx="2" ry="2" class="level-2-block" /><rect x="102.63999999999999" y="117.6" width="8.86" height="8.86" rx="2" ry="2" class="level-2-block" /><rect x="102.63999999999999" y="129.12" width="8.86" height="8.86" rx="2" ry="2" class="level-2-block" /></g><g x="114.16" y="60"><rect x="114.16" y="60.0" width="8.86" height="8.86" rx="2" ry="2" class="level-5-block" /><rect x="114.16" y="71.52" width="8.86" height="8.86" rx="2" ry="2" class="level-2-block" /><rect x="114.16" y="83.03999999999999" width="8.86" height="8.86" rx="2" ry="2" class="level-5-block" /><rect x="114.16" y="94.56" width="8.86" height="8.86" rx="2" ry="2" class="level-2-block" /><rect x="114.16" y="106.08" width="8.86" height="8.86" rx="2" ry="2" class="level-2-block" /><rect x="114.16" y="117.6" width="8.86" height="8.86" rx="2" ry="2" class="level-2-block" /><rect x="114.16" y="129.12" width="8.86" height="8.86" rx="2" ry="2" class="level-2-block" /></g><g x="125.67999999999999" y="60"><rect x="125.67999999999999" y="60.0" width="8.86" height="8.86" rx="2" ry="2" class="level-2-block" /><rect x="125.67999999999999" y="71.52" width="8.86" height="8.86" rx="2" ry="2" class="level-2-block" /><rect x="125.67999999999999" y="83.03999999999999" width="8.86" height="8.86" rx="2" ry="2" class="level-2-block" /></g>   <text x="79.6" y="155" class="light-gray state">Feb</text></g></g><g x="139.2" y="60"><g x="139.2" y="60"><g x="139.2" y="60"><rect x="139.2" y="94.56" width="8.86" height="8.86" rx="2" ry="2" class="level-4-block" /><rect x="139.2" y="106.08" width="8.86" height="8.86" rx="2" ry="2" class="level-2-block" /><rect x="139.2" y="117.6" width="8.86" height="8.86" rx="2" ry="2" class="level-2-block" /><rect x="139.2" y="129.12" width="8.86" height="8.86" rx="2" ry="2" class="level-2-block" /></g><g x="150.72" y="60"><rect x="150.72" y="60.0" width="8.86" height="8.86" rx="2" ry="2" class="level-2-block" /><rect x="150.72" y="71.52" width="8.86" height="8.86" rx="2" ry="2" class="level-2-block" /><rect x="150.72" y="83.03999999999999" width="8.86" height="8.86" rx="2" ry="2" class="level-2-block" /><rect x="150.72" y="94.56" width="8.86" height="8.86" rx="2" ry="2" class="level-2-block" /><rect x="150.72" y="106.08" width="8.86" height="8.86" rx="2" ry="2" class="level-5-block" /><rect x="150.72" y="117.6" width="8.86" height="8.86" rx="2" ry="2" class="level-2-block" /><rect x="150.72" y="129.12" width="8.86" height="8.86" rx="2" ry="2" class="level-5-block" /></g><g x="162.23999999999998" y="60"><rect x="162.23999999999998" y="60.0" width="8.86" height="8.86" rx="2" ry="2" class="level-5-block" /><rect x="162.23999999999998" y="71.52" width="8.86" height="8.86" rx="2" ry="2" class="level-2-block" /><rect x="162.23999999999998" y="83.03999999999999" width="8.86" height="8.86" rx="2" ry="2" class="level-2-block" /><rect x="162.23999999999998" y="94.56" width="8.86" height="8.86" rx="2" ry="2" class="level-2-block" /><rect x="162.23999999999998" y="106.08" width="8.86" height="8.86" rx="2" ry="2" class="level-2-block" /><rect x="162.23999999999998" y="117.6" width="8.86" height="8.86" rx="2" ry="2" class="level-2-block" /><rect x="162.23999999999998" y="129.12" width="8.86" height="8.86" rx="2" ry="2" class="level-2-block" /></g><g x="173.76" y="60"><rect x="173.76" y="60.0" width="8.86" height="8.86" rx="2" ry="2" class="level-2-block" /><rect x="173.76" y="71.52" width="8.86" height="8.86" rx="2" ry="2" class="level-2-block" /><rect x="173.76" y="83.03999999999999" width="8.86" height="8.86" rx="2" ry="2" class="level-4-block" /><rect x="173.76" y="94.56" width="8.86" height="8.86" rx="2" ry="2" class="level-4-block" /><rect x="173.76" y="106.08" width="8.86" height="8.86" rx="2" ry="2" class="level-2-block" /><rect x="173.76" y="117.6" width="8.86" height="8.86" rx="2" ry="2" class="level-2-block" /><rect x="173.76" y="129.12" width="8.86" height="8.86" rx="2" ry="2" class="level-2-block" /></g><g x="185.27999999999997" y="60"><rect x="185.27999999999997" y="60.0" width="8.86" height="8.86" rx="2" ry="2" class="level-2-block" /><rect x="185.27999999999997" y="71.52" width="8.86" height="8.86" rx="2" ry="2" class="level-2-block" /><rect x="185.27999999999997" y="83.03999999999999" width="8.86" height="8.86" rx="2" ry="2" class="level-4-block" /><rect x="185.27999999999997" y="94.56" width="8.86" height="8.86" rx="2" ry="2" class="level-2-block" /><rect x="185.27999999999997" y="106.08" width="8.86" height="8.86" rx="2" ry="2" class="level-2-block" /><rect x="185.27999999999997" y="117.6" width="8.86" height="8.86" rx="2" ry="2" class="level-2-block" /></g>   <text x="139.2" y="155" class="light-gray state">Mar</text></g></g><g x="198.79999999999998" y="60"><g x="198.79999999999998" y="60"><g x="198.79999999999998" y="60"><rect x="198.79999999999998" y="129.12" width="8.86" height="8.86" rx="2" ry="2" class="level-2-block" /></g><g x="210.32" y="60"><rect x="210.32" y="60.0" width="8.86" height="8.86" rx="2" ry="2" class="level-4-block" /><rect x="210.32" y="71.52" width="8.86" height="8.86" rx="2" ry="2" class="level-4-block" /><rect x="210.32" y="83.03999999999999" width="8.86" height="8.86" rx="2" ry="2" class="level-2-block" /><rect x="210.32" y="94.56" width="8.86" height="8.86" rx="2" ry="2" class="level-5-block" /><rect x="210.32" y="106.08" width="8.86" height="8.86" rx="2" ry="2" class="level-2-block" /><rect x="210.32" y="117.6" width="8.86" height="8.86" rx="2" ry="2" class="level-2-block" /><rect x="210.32" y="129.12" width="8.86" height="8.86" rx="2" ry="2" class="level-2-block" /></g><g x="221.83999999999997" y="60"><rect x="221.83999999999997" y="60.0" width="8.86" height="8.86" rx="2" ry="2" class="level-2-block" /><rect x="221.83999999999997" y="71.52" width="8.86" height="8.86" rx="2" ry="2" class="level-2-block" /><rect x="221.83999999999997" y="83.03999999999999" width="8.86" height="8.86" rx="2" ry="2" class="level-4-block" /><rect x="221.83999999999997" y="94.56" width="8.86" height="8.86" rx="2" ry="2" class="level-4-block" /><rect x="221.83999999999997" y="106.08" width="8.86" height="8.86" rx="2" ry="2" class="level-2-block" /><rect x="221.83999999999997" y="117.6" width="8.86" height="8.86" rx="2" ry="2" class="level-2-block" /><rect x="221.83999999999997" y="129.12" width="8.86" height="8.86" rx="2" ry="2" class="level-2-block" /></g><g x="233.35999999999999" y="60"><rect x="233.35999999999999" y="60.0" width="8.86" height="8.86" rx="2" ry="2" class="level-2-block" /><rect x="233.35999999999999" y="71.52" width="8.86" height="8.86" rx="2" ry="2" class="level-2-block" /><rect x="233.35999999999999" y="83.03999999999999" width="8.86" height="8.86" rx="2" ry="2" class="level-2-block" /><rect x="233.35999999999999" y="94.56" width="8.86" height="8.86" rx="2" ry="2" class="level-2-block" /><rect x="233.35999999999999" y="106.08" width="8.86" height="8.86" rx="2" ry="2" class="level-2-block" /><rect x="233.35999999999999" y="117.6" width="8.86" height="8.86" rx="2" ry="2" class="level-2-block" /><rect x="233.35999999999999" y="129.12" width="8.86" height="8.86" rx="2" ry="2" class="level-2-block" /></g><g x="244.88" y="60"><rect x="244.88" y="60.0" width="8.86" height="8.86" rx="2" ry="2" class="level-2-block" /><rect x="244.88" y="71.52" width="8.86" height="8.86" rx="2" ry="2" class="level-2-block" /><rect x="244.88" y="83.03999999999999" width="8.86" height="8.86" rx="2" ry="2" class="level-2-block" /><rect x="244.88" y="94.56" width="8.86" height="8.86" rx="2" ry="2" class="level-2-block" /><rect x="244.88" y="106.08" width="8.86" height="8.86" rx="2" ry="2" class="level-2-block" /><rect x="244.88" y="117.6" width="8.86" height="8.86" rx="2" ry="2" class="level-2-block" /><rect x="244.88" y="129.12" width="8.86" height="8.86" rx="2" ry="2" class="level-2-block" /></g><g x="256.4" y="60"><rect x="256.4" y="60.0" width="8.86" height="8.86" rx="2" ry="2" class="level-2-block" /></g>   <text x="198.79999999999998" y="155" class="light-gray state">Apr</text></g></g><g x="269.91999999999996" y="60"><g x="269.91999999999996" y="60"><g x="269.91999999999996" y="60"><rect x="269.91999999999996" y="71.52" width="8.86" height="8.86" rx="2" ry="2" class="level-2-block" /><rect x="269.91999999999996" y="83.03999999999999" width="8.86" height="8.86" rx="2" ry="2" class="level-2-block" /><rect x="269.91999999999996" y="94.56" width="8.86" height="8.86" rx="2" ry="2" class="level-2-block" /><rect x="269.91999999999996" y="106.08" width="8.86" height="8.86" rx="2" ry="2" class="level-2-block" /><rect x="269.91999999999996" y="117.6" width="8.86" height="8.86" rx="2" ry="2" class="level-2-block" /><rect x="269.91999999999996" y="129.12" width="8.86" height="8.86" rx="2" ry="2" class="level-2-block" /></g><g x="281.43999999999994" y="60"><rect x="281.43999999999994" y="60.0" width="8.86" height="8.86" rx="2" ry="2" class="level-2-block" /><rect x="281.43999999999994" y="71.52" width="8.86" height="8.86" rx="2" ry="2" class="level-2-block" /><rect x="281.43999999999994" y="83.03999999999999" width="8.86" height="8.86" rx="2" ry="2" class="level-2-block" /><rect x="281.43999999999994" y="94.56" width="8.86" height="8.86" rx="2" ry="2" class="level-2-block" /><rect x="281.43999999999994" y="106.08" width="8.86" height="8.86" rx="2" ry="2" class="level-2-block" /><rect x="281.43999999999994" y="117.6" width="8.86" height="8.86" rx="2" ry="2" class="level-2-block" /><rect x="281.43999999999994" y="129.12" width="8.86" height="8.86" rx="2" ry="2" class="level-2-block" /></g><g x="292.96" y="60"><rect x="292.96" y="60.0" width="8.86" height="8.86" rx="2" ry="2" class="level-2-block" /><rect x="292.96" y="71.52" width="8.86" height="8.86" rx="2" ry="2" class="level-2-block" /><rect x="292.96" y="83.03999999999999" width="8.86" height="8.86" rx="2" ry="2" class="level-2-block" /><rect x="292.96" y="94.56" width="8.86" height="8.86" rx="2" ry="2" class="level-2-block" /><rect x="292.96" y="106.08" width="8.86" height="8.86" rx="2" ry="2" class="level-2-block" /><rect x="292.96" y="117.6" width="8.86" height="8.86" rx="2" ry="2" class="level-2-block" /><rect x="292.96" y="129.12" width="8.86" height="8.86" rx="2" ry="2" class="level-2-block" /></g><g x="304.47999999999996" y="60"><rect x="304.47999999999996" y="60.0" width="8.86" height="8.86" rx="2" ry="2" class="level-2-block" /><rect x="304.47999999999996" y="71.52" width="8.86" height="8.86" rx="2" ry="2" class="level-2-block" /><rect x="304.47999999999996" y="83.03999999999999" width="8.86" height="8.86" rx="2" ry="2" class="level-2-block" /><rect x="304.47999999999996" y="94.56" width="8.86" height="8.86" rx="2" ry="2" class="level-2-block" /><rect x="304.47999999999996" y="106.08" width="8.86" height="8.86" rx="2" ry="2" class="level-2-block" /><rect x="304.47999999999996" y="117.6" width="8.86" height="8.86" rx="2" ry="2" class="level-2-block" /><rect x="304.47999999999996" y="129.12" width="8.86" height="8.86" rx="2" ry="2" class="level-2-block" /></g><g x="315.99999999999994" y="60"><rect x="315.99999999999994" y="60.0" width="8.86" height="8.86" rx="2" ry="2" class="level-2-block" /><rect x="315.99999999999994" y="71.52" width="8.86" height="8.86" rx="2" ry="2" class="level-2-block" /><rect x="315.99999999999994" y="83.03999999999999" width="8.86" height="8.86" rx="2" ry="2" class="level-2-block" /><rect x="315.99999999999994" y="94.56" width="8.86" height="8.86" rx="2" ry="2" class="level-2-block" /></g>   <text x="269.91999999999996" y="155" class="light-gray state">May</text></g></g><g x="329.52" y="60"><g x="329.52" y="60"><g x="329.52" y="60"><rect x="329.52" y="106.08" width="8.86" height="8.86" rx="2" ry="2" class="level-2-block" /><rect x="329.52" y="117.6" width="8.86" height="8.86" rx="2" ry="2" class="level-2-block" /><rect x="329.52" y="129.12" width="8.86" height="8.86" rx="2" ry="2" class="level-2-block" /></g><g x="341.03999999999996" y="60"><rect x="341.03999999999996" y="60.0" width="8.86" height="8.86" rx="2" ry="2" class="level-2-block" /><rect x="341.03999999999996" y="71.52" width="8.86" height="8.86" rx="2" ry="2" class="level-2-block" /><rect x="341.03999999999996" y="83.03999999999999" width="8.86" height="8.86" rx="2" ry="2" class="level-2-block" /><rect x="341.03999999999996" y="94.56" width="8.86" height="8.86" rx="2" ry="2" class="level-2-block" /><rect x="341.03999999999996" y="106.08" width="8.86" height="8.86" rx="2" ry="2" class="level-2-block" /><rect x="341.03999999999996" y="117.6" width="8.86" height="8.86" rx="2" ry="2" class="level-2-block" /><rect x="341.03999999999996" y="129.12" width="8.86" height="8.86" rx="2" ry="2" class="level-2-block" /></g><g x="352.56" y="60"><rect x="352.56" y="60.0" width="8.86" height="8.86" rx="2" ry="2" class="level-2-block" /><rect x="352.56" y="71.52" width="8.86" height="8.86" rx="2" ry="2" class="level-2-block" /><rect x="352.56" y="83.03999999999999" width="8.86" height="8.86" rx="2" ry="2" class="level-2-block" /><rect x="352.56" y="94.56" width="8.86" height="8.86" rx="2" ry="2" class="level-2-block" /><rect x="352.56" y="106.08" width="8.86" height="8.86" rx="2" ry="2" class="level-2-block" /><rect x="352.56" y="117.6" width="8.86" height="8.86" rx="2" ry="2" class="level-2-block" /><rect x="352.56" y="129.12" width="8.86" height="8.86" rx="2" ry="2" class="level-2-block" /></g><g x="364.08" y="60"><rect x="364.08" y="60.0" width="8.86" height="8.86" rx="2" ry="2" class="level-2-block" /><rect x="364.08" y="71.52" width="8.86" height="8.86" rx="2" ry="2" class="level-2-block" /><rect x="364.08" y="83.03999999999999" width="8.86" height="8.86" rx="2" ry="2" class="level-2-block" /><rect x="364.08" y="94.56" width="8.86" height="8.86" rx="2" ry="2" class="level-2-block" /><rect x="364.08" y="106.08" width="8.86" height="8.86" rx="2" ry="2" class="level-2-block" /><rect x="364.08" y="117.6" width="8.86" height="8.86" rx="2" ry="2" class="level-2-block" /><rect x="364.08" y="129.12" width="8.86" height="8.86" rx="2" ry="2" class="level-2-block" /></g><g x="375.59999999999997" y="60"><rect x="375.59999999999997" y="60.0" width="8.86" height="8.86" rx="2" ry="2" class="level-2-block" /><rect x="375.59999999999997" y="71.52" width="8.86" height="8.86" rx="2" ry="2" class="level-2-block" /><rect x="375.59999999999997" y="83.03999999999999" width="8.86" height="8.86" rx="2" ry="2" class="level-2-block" /><rect x="375.59999999999997" y="94.56" width="8.86" height="8.86" rx="2" ry="2" class="level-2-block" /><rect x="375.59999999999997" y="106.08" width="8.86" height="8.86" rx="2" ry="2" class="level-2-block" /></g>   <text x="329.52" y="155" class="light-gray state">Jun</text></g></g></svg>