<svg version="1.1" height="200" width="830" viewBox="0 0 830 200" xmlns="http://www.w3.org/2000/svg">   <style>*{font-family: "Segoe UI", Tahoma, Geneva, Verdana, sans-serif;}</style>   <style>.title{font-weight: 500;font-size: 1rem;}</style>   <style>.rotate-90{transform: rotate(-90deg);transform-origin: center;transform-box: fill-box;}</style>   <style>.state{font-size: .75rem;}</style>   <style>.light{color: #ffffff;fill: #ffffff;}</style>   <style>.light-gray{color: #eff2f699;fill: #eff2f699;}</style>   <style>.dark-gray{color: #ebebf54d;fill: #ebebf54d;}</style>   <style>.gray{color: #747474;fill: #747474;}</style>   <style>.orange{color: #ffa116;fill: #ffa116;}</style>   <style>.background{color: #404040;fill: #404040;}</style><style>.level-1-block{fill: #ffffff1a;}</style><style>.level-2-block{fill: #2cb55d80;}</style><style>.level-3-block{fill: #2cbb5dff;}</style><style>.level-4-block{fill: #4cc575ff;}</style><style>.level-5-block{fill: #6bcf8eff;}</style>   <rect fill="#404040" x="0" y="0" width="830" height="200" rx="0.5rem"/>   <g text-anchor="start" text-decoration="1" class="title">       <text x="20" y="35">           <tspan class="light">Activity</tspan>           <tspan class="orange"></tspan>       </text>   </g><g class="state">   <text x="670" y="35" class="light-gray"> Total solution: </text>   <text x="750" y="35" class="light"> 15 </text>   <text x="678.88" y="180" class="light-gray" text-anchor="end">Less</text><rect x="686.64" y="171" width="8.86" height="8.86" rx="2" ry="2" class="level-1-block"/><rect x="698.16" y="171" width="8.86" height="8.86" rx="2" ry="2" class="level-2-block"/><rect x="709.68" y="171" width="8.86" height="8.86" rx="2" ry="2" class="level-3-block"/><rect x="721.2" y="171" width="8.86" height="8.86" rx="2" ry="2" class="level-4-block"/><rect x="732.72" y="171" width="8.86" height="8.86" rx="2" ry="2" class="level-5-block"/>   <text x="750" y="180" class="light-gray">More</text></g><g x="20" y="60"><g x="20" y="60"><g x="20.0" y="60"><rect x="20.0" y="71.52" width="8.86" height="8.86" rx="2" ry="2" class="level-2-block" /><rect x="20.0" y="83.03999999999999" width="8.86" height="8.86" rx="2" ry="2" class="level-2-block" /><rect x="20.0" y="94.56" width="8.86" height="8.86" rx="2" ry="2" class="level-2-block" /><rect x="20.0" y="106.08" width="8.86" height="8.86" rx="2" ry="2" class="level-2-block" /><rect x="20.0" y="117.6" width="8.86" height="8.86" rx="2" ry="2" class="level-2-block" /><rect x="20.0" y="129.12" width="8.86" height="8.86" rx="2" ry="2" class="level-2-block" /></g><g x="31.52" y="60"><rect x="31.52" y="60.0" width="8.86" height="8.86" rx="2" ry="2" class="level-2-block" /><rect x="31.52" y="71.52" width="8.86" height="8.86" rx="2" ry="2" class="level-2-block" /><rect x="31.52" y="83.03999999999999" width="8.86" height="8.86" rx="2" ry="2" class="level-2-block" /><rect x="31.52" y="94.56" width="8.86" height="8.86" rx="2" ry="2" class="level-2-block" /><rect x="31.52" y="106.08" width="8.86" height="8.86" rx="2" ry="2" class="level-2-block" /><rect x="31.52" y="117.6" width="8.86" height="8.86" rx="2" ry="2" class="level-2-block" /><rect x="31.52" y="129.12" width="8.86" height="8.86" rx="2" ry="2" class="level-2-block" /></g><g x="43.04" y="60"><rect x="43.04" y="60.0" width="8.86" height="8.86" rx="2" ry="2" class="level-2-block" /><rect x="43.04" y="71.52" width="8.86" height="8.86" rx="2" ry="2" class="level-2-block" /></g>   <text x="20.0" y="155" class="light-gray state">Jan</text></g></g></svg>