<svg version="1.1" height="200" width="830" viewBox="0 0 830 200" xmlns="http://www.w3.org/2000/svg">   <style>*{font-family: "Segoe UI", Tahoma, Geneva, Verdana, sans-serif;}</style>   <style>.title{font-weight: 500;font-size: 1rem;}</style>   <style>.rotate-90{transform: rotate(-90deg);transform-origin: center;transform-box: fill-box;}</style>   <style>.state{font-size: .75rem;}</style>   <style>.light{color: #ffffff;fill: #ffffff;}</style>   <style>.light-gray{color: #eff2f699;fill: #eff2f699;}</style>   <style>.dark-gray{color: #ebebf54d;fill: #ebebf54d;}</style>   <style>.gray{color: #747474;fill: #747474;}</style>   <style>.orange{color: #ffa116;fill: #ffa116;}</style>   <style>.background{color: #404040;fill: #404040;}</style><style>.level-1-block{fill: #ffffff1a;}</style><style>.level-2-block{fill: #2cb55d80;}</style><style>.level-3-block{fill: #2cbb5dff;}</style><style>.level-4-block{fill: #4cc575ff;}</style><style>.level-5-block{fill: #6bcf8eff;}</style>   <rect fill="#404040" x="0" y="0" width="830" height="200" rx="0.5rem"/>   <g text-anchor="start" text-decoration="1" class="title">       <text x="20" y="35">           <tspan class="light">Recent Activity within</tspan>           <tspan class="orange">365 Days</tspan>       </text>   </g><g class="state">   <text x="670" y="35" class="light-gray"> Total solution: </text>   <text x="750" y="35" class="light"> 391 </text>   <text x="678.88" y="180" class="light-gray" text-anchor="end">Less</text><rect x="686.64" y="171" width="8.86" height="8.86" rx="2" ry="2" class="level-1-block"/><rect x="698.16" y="171" width="8.86" height="8.86" rx="2" ry="2" class="level-2-block"/><rect x="709.68" y="171" width="8.86" height="8.86" rx="2" ry="2" class="level-3-block"/><rect x="721.2" y="171" width="8.86" height="8.86" rx="2" ry="2" class="level-4-block"/><rect x="732.72" y="171" width="8.86" height="8.86" rx="2" ry="2" class="level-5-block"/>   <text x="750" y="180" class="light-gray">More</text></g><g x="20" y="60"><g x="20" y="60"><g x="20.0" y="60"><rect x="20.0" y="129.12" width="8.86" height="8.86" rx="2" ry="2" class="level-2-block" /></g><g x="31.52" y="60"><rect x="31.52" y="60.0" width="8.86" height="8.86" rx="2" ry="2" class="level-2-block" /><rect x="31.52" y="71.52" width="8.86" height="8.86" rx="2" ry="2" class="level-2-block" /><rect x="31.52" y="83.03999999999999" width="8.86" height="8.86" rx="2" ry="2" class="level-2-block" /><rect x="31.52" y="94.56" width="8.86" height="8.86" rx="2" ry="2" class="level-2-block" /><rect x="31.52" y="106.08" width="8.86" height="8.86" rx="2" ry="2" class="level-2-block" /><rect x="31.52" y="117.6" width="8.86" height="8.86" rx="2" ry="2" class="level-2-block" /><rect x="31.52" y="129.12" width="8.86" height="8.86" rx="2" ry="2" class="level-2-block" /></g><g x="43.04" y="60"><rect x="43.04" y="60.0" width="8.86" height="8.86" rx="2" ry="2" class="level-2-block" /><rect x="43.04" y="71.52" width="8.86" height="8.86" rx="2" ry="2" class="level-4-block" /><rect x="43.04" y="83.03999999999999" width="8.86" height="8.86" rx="2" ry="2" class="level-2-block" /><rect x="43.04" y="94.56" width="8.86" height="8.86" rx="2" ry="2" class="level-2-block" /><rect x="43.04" y="106.08" width="8.86" height="8.86" rx="2" ry="2" class="level-4-block" /><rect x="43.04" y="117.6" width="8.86" height="8.86" rx="2" ry="2" class="level-2-block" /></g>   <text x="20.0" y="155" class="light-gray state">Sep</text></g></g><g x="56.56" y="60"><g x="56.56" y="60"><g x="56.56" y="60"><rect x="56.56" y="129.12" width="8.86" height="8.86" rx="2" ry="2" class="level-2-block" /></g><g x="68.08" y="60"><rect x="68.08" y="60.0" width="8.86" height="8.86" rx="2" ry="2" class="level-2-block" /><rect x="68.08" y="71.52" width="8.86" height="8.86" rx="2" ry="2" class="level-4-block" /><rect x="68.08" y="83.03999999999999" width="8.86" height="8.86" rx="2" ry="2" class="level-2-block" /><rect x="68.08" y="94.56" width="8.86" height="8.86" rx="2" ry="2" class="level-2-block" /><rect x="68.08" y="106.08" width="8.86" height="8.86" rx="2" ry="2" class="level-2-block" /><rect x="68.08" y="117.6" width="8.86" height="8.86" rx="2" ry="2" class="level-2-block" /><rect x="68.08" y="129.12" width="8.86" height="8.86" rx="2" ry="2" class="level-4-block" /></g><g x="79.6" y="60"><rect x="79.6" y="60.0" width="8.86" height="8.86" rx="2" ry="2" class="level-2-block" /><rect x="79.6" y="71.52" width="8.86" height="8.86" rx="2" ry="2" class="level-2-block" /><rect x="79.6" y="83.03999999999999" width="8.86" height="8.86" rx="2" ry="2" class="level-2-block" /><rect x="79.6" y="94.56" width="8.86" height="8.86" rx="2" ry="2" class="level-2-block" /><rect x="79.6" y="106.08" width="8.86" height="8.86" rx="2" ry="2" class="level-2-block" /><rect x="79.6" y="117.6" width="8.86" height="8.86" rx="2" ry="2" class="level-2-block" /><rect x="79.6" y="129.12" width="8.86" height="8.86" rx="2" ry="2" class="level-2-block" /></g><g x="91.12" y="60"><rect x="91.12" y="60.0" width="8.86" height="8.86" rx="2" ry="2" class="level-2-block" /><rect x="91.12" y="71.52" width="8.86" height="8.86" rx="2" ry="2" class="level-2-block" /><rect x="91.12" y="83.03999999999999" width="8.86" height="8.86" rx="2" ry="2" class="level-2-block" /><rect x="91.12" y="94.56" width="8.86" height="8.86" rx="2" ry="2" class="level-2-block" /><rect x="91.12" y="106.08" width="8.86" height="8.86" rx="2" ry="2" class="level-2-block" /><rect x="91.12" y="117.6" width="8.86" height="8.86" rx="2" ry="2" class="level-2-block" /><rect x="91.12" y="129.12" width="8.86" height="8.86" rx="2" ry="2" class="level-2-block" /></g><g x="102.64" y="60"><rect x="102.64" y="60.0" width="8.86" height="8.86" rx="2" ry="2" class="level-2-block" /><rect x="102.64" y="71.52" width="8.86" height="8.86" rx="2" ry="2" class="level-2-block" /><rect x="102.64" y="83.03999999999999" width="8.86" height="8.86" rx="2" ry="2" class="level-2-block" /><rect x="102.64" y="94.56" width="8.86" height="8.86" rx="2" ry="2" class="level-2-block" /><rect x="102.64" y="106.08" width="8.86" height="8.86" rx="2" ry="2" class="level-2-block" /><rect x="102.64" y="117.6" width="8.86" height="8.86" rx="2" ry="2" class="level-2-block" /><rect x="102.64" y="129.12" width="8.86" height="8.86" rx="2" ry="2" class="level-2-block" /></g><g x="114.16" y="60"><rect x="114.16" y="60.0" width="8.86" height="8.86" rx="2" ry="2" class="level-2-block" /><rect x="114.16" y="71.52" width="8.86" height="8.86" rx="2" ry="2" class="level-2-block" /></g>   <text x="56.56" y="155" class="light-gray state">Oct</text></g></g><g x="127.68" y="60"><g x="127.68" y="60"><g x="127.68" y="60"><rect x="127.68" y="83.03999999999999" width="8.86" height="8.86" rx="2" ry="2" class="level-2-block" /><rect x="127.68" y="94.56" width="8.86" height="8.86" rx="2" ry="2" class="level-2-block" /><rect x="127.68" y="106.08" width="8.86" height="8.86" rx="2" ry="2" class="level-2-block" /><rect x="127.68" y="117.6" width="8.86" height="8.86" rx="2" ry="2" class="level-2-block" /><rect x="127.68" y="129.12" width="8.86" height="8.86" rx="2" ry="2" class="level-2-block" /></g><g x="139.20000000000002" y="60"><rect x="139.20000000000002" y="60.0" width="8.86" height="8.86" rx="2" ry="2" class="level-2-block" /><rect x="139.20000000000002" y="71.52" width="8.86" height="8.86" rx="2" ry="2" class="level-2-block" /><rect x="139.20000000000002" y="83.03999999999999" width="8.86" height="8.86" rx="2" ry="2" class="level-2-block" /><rect x="139.20000000000002" y="94.56" width="8.86" height="8.86" rx="2" ry="2" class="level-2-block" /><rect x="139.20000000000002" y="106.08" width="8.86" height="8.86" rx="2" ry="2" class="level-2-block" /><rect x="139.20000000000002" y="117.6" width="8.86" height="8.86" rx="2" ry="2" class="level-2-block" /><rect x="139.20000000000002" y="129.12" width="8.86" height="8.86" rx="2" ry="2" class="level-2-block" /></g><g x="150.72" y="60"><rect x="150.72" y="60.0" width="8.86" height="8.86" rx="2" ry="2" class="level-2-block" /><rect x="150.72" y="71.52" width="8.86" height="8.86" rx="2" ry="2" class="level-2-block" /><rect x="150.72" y="83.03999999999999" width="8.86" height="8.86" rx="2" ry="2" class="level-2-block" /><rect x="150.72" y="94.56" width="8.86" height="8.86" rx="2" ry="2" class="level-2-block" /><rect x="150.72" y="106.08" width="8.86" height="8.86" rx="2" ry="2" class="level-2-block" /><rect x="150.72" y="117.6" width="8.86" height="8.86" rx="2" ry="2" class="level-2-block" /><rect x="150.72" y="129.12" width="8.86" height="8.86" rx="2" ry="2" class="level-2-block" /></g><g x="162.24" y="60"><rect x="162.24" y="60.0" width="8.86" height="8.86" rx="2" ry="2" class="level-2-block" /><rect x="162.24" y="71.52" width="8.86" height="8.86" rx="2" ry="2" class="level-2-block" /><rect x="162.24" y="83.03999999999999" width="8.86" height="8.86" rx="2" ry="2" class="level-2-block" /><rect x="162.24" y="94.56" width="8.86" height="8.86" rx="2" ry="2" class="level-2-block" /><rect x="162.24" y="106.08" width="8.86" height="8.86" rx="2" ry="2" class="level-2-block" /><rect x="162.24" y="117.6" width="8.86" height="8.86" rx="2" ry="2" class="level-2-block" /><rect x="162.24" y="129.12" width="8.86" height="8.86" rx="2" ry="2" class="level-2-block" /></g><g x="173.76" y="60"><rect x="173.76" y="60.0" width="8.86" height="8.86" rx="2" ry="2" class="level-2-block" /><rect x="173.76" y="71.52" width="8.86" height="8.86" rx="2" ry="2" class="level-1-block" /><rect x="173.76" y="83.03999999999999" width="8.86" height="8.86" rx="2" ry="2" class="level-4-block" /><rect x="173.76" y="94.56" width="8.86" height="8.86" rx="2" ry="2" class="level-2-block" /></g>   <text x="127.68" y="155" class="light-gray state">Nov</text></g></g><g x="187.28" y="60"><g x="187.28" y="60"><g x="187.28" y="60"><rect x="187.28" y="106.08" width="8.86" height="8.86" rx="2" ry="2" class="level-2-block" /><rect x="187.28" y="117.6" width="8.86" height="8.86" rx="2" ry="2" class="level-2-block" /><rect x="187.28" y="129.12" width="8.86" height="8.86" rx="2" ry="2" class="level-2-block" /></g><g x="198.8" y="60"><rect x="198.8" y="60.0" width="8.86" height="8.86" rx="2" ry="2" class="level-2-block" /><rect x="198.8" y="71.52" width="8.86" height="8.86" rx="2" ry="2" class="level-2-block" /><rect x="198.8" y="83.03999999999999" width="8.86" height="8.86" rx="2" ry="2" class="level-2-block" /><rect x="198.8" y="94.56" width="8.86" height="8.86" rx="2" ry="2" class="level-4-block" /><rect x="198.8" y="106.08" width="8.86" height="8.86" rx="2" ry="2" class="level-2-block" /><rect x="198.8" y="117.6" width="8.86" height="8.86" rx="2" ry="2" class="level-2-block" /><rect x="198.8" y="129.12" width="8.86" height="8.86" rx="2" ry="2" class="level-2-block" /></g><g x="210.32" y="60"><rect x="210.32" y="60.0" width="8.86" height="8.86" rx="2" ry="2" class="level-2-block" /><rect x="210.32" y="71.52" width="8.86" height="8.86" rx="2" ry="2" class="level-2-block" /><rect x="210.32" y="83.03999999999999" width="8.86" height="8.86" rx="2" ry="2" class="level-2-block" /><rect x="210.32" y="94.56" width="8.86" height="8.86" rx="2" ry="2" class="level-2-block" /><rect x="210.32" y="106.08" width="8.86" height="8.86" rx="2" ry="2" class="level-2-block" /><rect x="210.32" y="117.6" width="8.86" height="8.86" rx="2" ry="2" class="level-2-block" /><rect x="210.32" y="129.12" width="8.86" height="8.86" rx="2" ry="2" class="level-2-block" /></g><g x="221.84" y="60"><rect x="221.84" y="60.0" width="8.86" height="8.86" rx="2" ry="2" class="level-2-block" /><rect x="221.84" y="71.52" width="8.86" height="8.86" rx="2" ry="2" class="level-2-block" /><rect x="221.84" y="83.03999999999999" width="8.86" height="8.86" rx="2" ry="2" class="level-2-block" /><rect x="221.84" y="94.56" width="8.86" height="8.86" rx="2" ry="2" class="level-2-block" /><rect x="221.84" y="106.08" width="8.86" height="8.86" rx="2" ry="2" class="level-2-block" /><rect x="221.84" y="117.6" width="8.86" height="8.86" rx="2" ry="2" class="level-2-block" /><rect x="221.84" y="129.12" width="8.86" height="8.86" rx="2" ry="2" class="level-2-block" /></g><g x="233.36" y="60"><rect x="233.36" y="60.0" width="8.86" height="8.86" rx="2" ry="2" class="level-2-block" /><rect x="233.36" y="71.52" width="8.86" height="8.86" rx="2" ry="2" class="level-2-block" /><rect x="233.36" y="83.03999999999999" width="8.86" height="8.86" rx="2" ry="2" class="level-2-block" /><rect x="233.36" y="94.56" width="8.86" height="8.86" rx="2" ry="2" class="level-2-block" /><rect x="233.36" y="106.08" width="8.86" height="8.86" rx="2" ry="2" class="level-2-block" /><rect x="233.36" y="117.6" width="8.86" height="8.86" rx="2" ry="2" class="level-2-block" /><rect x="233.36" y="129.12" width="8.86" height="8.86" rx="2" ry="2" class="level-2-block" /></g>   <text x="187.28" y="155" class="light-gray state">Dec</text></g></g><g x="258.4" y="60"><g x="258.4" y="60"><g x="258.4" y="60"><rect x="258.4" y="60.0" width="8.86" height="8.86" rx="2" ry="2" class="level-2-block" /><rect x="258.4" y="71.52" width="8.86" height="8.86" rx="2" ry="2" class="level-2-block" /><rect x="258.4" y="83.03999999999999" width="8.86" height="8.86" rx="2" ry="2" class="level-2-block" /><rect x="258.4" y="94.56" width="8.86" height="8.86" rx="2" ry="2" class="level-2-block" /><rect x="258.4" y="106.08" width="8.86" height="8.86" rx="2" ry="2" class="level-2-block" /><rect x="258.4" y="117.6" width="8.86" height="8.86" rx="2" ry="2" class="level-2-block" /><rect x="258.4" y="129.12" width="8.86" height="8.86" rx="2" ry="2" class="level-2-block" /></g><g x="269.91999999999996" y="60"><rect x="269.91999999999996" y="60.0" width="8.86" height="8.86" rx="2" ry="2" class="level-2-block" /><rect x="269.91999999999996" y="71.52" width="8.86" height="8.86" rx="2" ry="2" class="level-2-block" /><rect x="269.91999999999996" y="83.03999999999999" width="8.86" height="8.86" rx="2" ry="2" class="level-2-block" /><rect x="269.91999999999996" y="94.56" width="8.86" height="8.86" rx="2" ry="2" class="level-2-block" /><rect x="269.91999999999996" y="106.08" width="8.86" height="8.86" rx="2" ry="2" class="level-2-block" /><rect x="269.91999999999996" y="117.6" width="8.86" height="8.86" rx="2" ry="2" class="level-2-block" /><rect x="269.91999999999996" y="129.12" width="8.86" height="8.86" rx="2" ry="2" class="level-2-block" /></g><g x="281.44" y="60"><rect x="281.44" y="60.0" width="8.86" height="8.86" rx="2" ry="2" class="level-2-block" /><rect x="281.44" y="71.52" width="8.86" height="8.86" rx="2" ry="2" class="level-4-block" /><rect x="281.44" y="83.03999999999999" width="8.86" height="8.86" rx="2" ry="2" class="level-2-block" /><rect x="281.44" y="94.56" width="8.86" height="8.86" rx="2" ry="2" class="level-2-block" /><rect x="281.44" y="106.08" width="8.86" height="8.86" rx="2" ry="2" class="level-2-block" /><rect x="281.44" y="117.6" width="8.86" height="8.86" rx="2" ry="2" class="level-2-block" /><rect x="281.44" y="129.12" width="8.86" height="8.86" rx="2" ry="2" class="level-2-block" /></g><g x="292.96" y="60"><rect x="292.96" y="60.0" width="8.86" height="8.86" rx="2" ry="2" class="level-2-block" /><rect x="292.96" y="71.52" width="8.86" height="8.86" rx="2" ry="2" class="level-2-block" /><rect x="292.96" y="83.03999999999999" width="8.86" height="8.86" rx="2" ry="2" class="level-2-block" /><rect x="292.96" y="94.56" width="8.86" height="8.86" rx="2" ry="2" class="level-2-block" /><rect x="292.96" y="106.08" width="8.86" height="8.86" rx="2" ry="2" class="level-2-block" /><rect x="292.96" y="117.6" width="8.86" height="8.86" rx="2" ry="2" class="level-2-block" /><rect x="292.96" y="129.12" width="8.86" height="8.86" rx="2" ry="2" class="level-1-block" /></g><g x="304.47999999999996" y="60"><rect x="304.47999999999996" y="60.0" width="8.86" height="8.86" rx="2" ry="2" class="level-2-block" /><rect x="304.47999999999996" y="71.52" width="8.86" height="8.86" rx="2" ry="2" class="level-2-block" /><rect x="304.47999999999996" y="83.03999999999999" width="8.86" height="8.86" rx="2" ry="2" class="level-2-block" /></g>   <text x="258.4" y="155" class="light-gray state">Jan</text></g></g><g x="318.0" y="60"><g x="318.0" y="60"><g x="318.0" y="60"><rect x="318.0" y="94.56" width="8.86" height="8.86" rx="2" ry="2" class="level-2-block" /><rect x="318.0" y="106.08" width="8.86" height="8.86" rx="2" ry="2" class="level-2-block" /><rect x="318.0" y="117.6" width="8.86" height="8.86" rx="2" ry="2" class="level-2-block" /><rect x="318.0" y="129.12" width="8.86" height="8.86" rx="2" ry="2" class="level-2-block" /></g><g x="329.52" y="60"><rect x="329.52" y="60.0" width="8.86" height="8.86" rx="2" ry="2" class="level-2-block" /><rect x="329.52" y="71.52" width="8.86" height="8.86" rx="2" ry="2" class="level-2-block" /><rect x="329.52" y="83.03999999999999" width="8.86" height="8.86" rx="2" ry="2" class="level-2-block" /><rect x="329.52" y="94.56" width="8.86" height="8.86" rx="2" ry="2" class="level-2-block" /><rect x="329.52" y="106.08" width="8.86" height="8.86" rx="2" ry="2" class="level-2-block" /><rect x="329.52" y="117.6" width="8.86" height="8.86" rx="2" ry="2" class="level-2-block" /><rect x="329.52" y="129.12" width="8.86" height="8.86" rx="2" ry="2" class="level-2-block" /></g><g x="341.04" y="60"><rect x="341.04" y="60.0" width="8.86" height="8.86" rx="2" ry="2" class="level-2-block" /><rect x="341.04" y="71.52" width="8.86" height="8.86" rx="2" ry="2" class="level-2-block" /><rect x="341.04" y="83.03999999999999" width="8.86" height="8.86" rx="2" ry="2" class="level-2-block" /><rect x="341.04" y="94.56" width="8.86" height="8.86" rx="2" ry="2" class="level-2-block" /><rect x="341.04" y="106.08" width="8.86" height="8.86" rx="2" ry="2" class="level-2-block" /><rect x="341.04" y="117.6" width="8.86" height="8.86" rx="2" ry="2" class="level-2-block" /><rect x="341.04" y="129.12" width="8.86" height="8.86" rx="2" ry="2" class="level-2-block" /></g><g x="352.56" y="60"><rect x="352.56" y="60.0" width="8.86" height="8.86" rx="2" ry="2" class="level-5-block" /><rect x="352.56" y="71.52" width="8.86" height="8.86" rx="2" ry="2" class="level-2-block" /><rect x="352.56" y="83.03999999999999" width="8.86" height="8.86" rx="2" ry="2" class="level-5-block" /><rect x="352.56" y="94.56" width="8.86" height="8.86" rx="2" ry="2" class="level-2-block" /><rect x="352.56" y="106.08" width="8.86" height="8.86" rx="2" ry="2" class="level-2-block" /><rect x="352.56" y="117.6" width="8.86" height="8.86" rx="2" ry="2" class="level-2-block" /><rect x="352.56" y="129.12" width="8.86" height="8.86" rx="2" ry="2" class="level-2-block" /></g><g x="364.08" y="60"><rect x="364.08" y="60.0" width="8.86" height="8.86" rx="2" ry="2" class="level-2-block" /><rect x="364.08" y="71.52" width="8.86" height="8.86" rx="2" ry="2" class="level-2-block" /><rect x="364.08" y="83.03999999999999" width="8.86" height="8.86" rx="2" ry="2" class="level-2-block" /></g>   <text x="318.0" y="155" class="light-gray state">Feb</text></g></g><g x="377.6" y="60"><g x="377.6" y="60"><g x="377.6" y="60"><rect x="377.6" y="94.56" width="8.86" height="8.86" rx="2" ry="2" class="level-4-block" /><rect x="377.6" y="106.08" width="8.86" height="8.86" rx="2" ry="2" class="level-2-block" /><rect x="377.6" y="117.6" width="8.86" height="8.86" rx="2" ry="2" class="level-2-block" /><rect x="377.6" y="129.12" width="8.86" height="8.86" rx="2" ry="2" class="level-2-block" /></g><g x="389.12" y="60"><rect x="389.12" y="60.0" width="8.86" height="8.86" rx="2" ry="2" class="level-2-block" /><rect x="389.12" y="71.52" width="8.86" height="8.86" rx="2" ry="2" class="level-2-block" /><rect x="389.12" y="83.03999999999999" width="8.86" height="8.86" rx="2" ry="2" class="level-2-block" /><rect x="389.12" y="94.56" width="8.86" height="8.86" rx="2" ry="2" class="level-2-block" /><rect x="389.12" y="106.08" width="8.86" height="8.86" rx="2" ry="2" class="level-5-block" /><rect x="389.12" y="117.6" width="8.86" height="8.86" rx="2" ry="2" class="level-2-block" /><rect x="389.12" y="129.12" width="8.86" height="8.86" rx="2" ry="2" class="level-5-block" /></g><g x="400.64000000000004" y="60"><rect x="400.64000000000004" y="60.0" width="8.86" height="8.86" rx="2" ry="2" class="level-5-block" /><rect x="400.64000000000004" y="71.52" width="8.86" height="8.86" rx="2" ry="2" class="level-2-block" /><rect x="400.64000000000004" y="83.03999999999999" width="8.86" height="8.86" rx="2" ry="2" class="level-2-block" /><rect x="400.64000000000004" y="94.56" width="8.86" height="8.86" rx="2" ry="2" class="level-2-block" /><rect x="400.64000000000004" y="106.08" width="8.86" height="8.86" rx="2" ry="2" class="level-2-block" /><rect x="400.64000000000004" y="117.6" width="8.86" height="8.86" rx="2" ry="2" class="level-2-block" /><rect x="400.64000000000004" y="129.12" width="8.86" height="8.86" rx="2" ry="2" class="level-2-block" /></g><g x="412.16" y="60"><rect x="412.16" y="60.0" width="8.86" height="8.86" rx="2" ry="2" class="level-2-block" /><rect x="412.16" y="71.52" width="8.86" height="8.86" rx="2" ry="2" class="level-2-block" /><rect x="412.16" y="83.03999999999999" width="8.86" height="8.86" rx="2" ry="2" class="level-4-block" /><rect x="412.16" y="94.56" width="8.86" height="8.86" rx="2" ry="2" class="level-4-block" /><rect x="412.16" y="106.08" width="8.86" height="8.86" rx="2" ry="2" class="level-2-block" /><rect x="412.16" y="117.6" width="8.86" height="8.86" rx="2" ry="2" class="level-2-block" /><rect x="412.16" y="129.12" width="8.86" height="8.86" rx="2" ry="2" class="level-2-block" /></g><g x="423.68" y="60"><rect x="423.68" y="60.0" width="8.86" height="8.86" rx="2" ry="2" class="level-2-block" /><rect x="423.68" y="71.52" width="8.86" height="8.86" rx="2" ry="2" class="level-2-block" /><rect x="423.68" y="83.03999999999999" width="8.86" height="8.86" rx="2" ry="2" class="level-4-block" /><rect x="423.68" y="94.56" width="8.86" height="8.86" rx="2" ry="2" class="level-2-block" /><rect x="423.68" y="106.08" width="8.86" height="8.86" rx="2" ry="2" class="level-2-block" /><rect x="423.68" y="117.6" width="8.86" height="8.86" rx="2" ry="2" class="level-2-block" /></g>   <text x="377.6" y="155" class="light-gray state">Mar</text></g></g><g x="437.20000000000005" y="60"><g x="437.20000000000005" y="60"><g x="437.20000000000005" y="60"><rect x="437.20000000000005" y="129.12" width="8.86" height="8.86" rx="2" ry="2" class="level-2-block" /></g><g x="448.72" y="60"><rect x="448.72" y="60.0" width="8.86" height="8.86" rx="2" ry="2" class="level-4-block" /><rect x="448.72" y="71.52" width="8.86" height="8.86" rx="2" ry="2" class="level-4-block" /><rect x="448.72" y="83.03999999999999" width="8.86" height="8.86" rx="2" ry="2" class="level-2-block" /><rect x="448.72" y="94.56" width="8.86" height="8.86" rx="2" ry="2" class="level-5-block" /><rect x="448.72" y="106.08" width="8.86" height="8.86" rx="2" ry="2" class="level-2-block" /><rect x="448.72" y="117.6" width="8.86" height="8.86" rx="2" ry="2" class="level-2-block" /><rect x="448.72" y="129.12" width="8.86" height="8.86" rx="2" ry="2" class="level-2-block" /></g><g x="460.24000000000007" y="60"><rect x="460.24000000000007" y="60.0" width="8.86" height="8.86" rx="2" ry="2" class="level-2-block" /><rect x="460.24000000000007" y="71.52" width="8.86" height="8.86" rx="2" ry="2" class="level-2-block" /><rect x="460.24000000000007" y="83.03999999999999" width="8.86" height="8.86" rx="2" ry="2" class="level-4-block" /><rect x="460.24000000000007" y="94.56" width="8.86" height="8.86" rx="2" ry="2" class="level-4-block" /><rect x="460.24000000000007" y="106.08" width="8.86" height="8.86" rx="2" ry="2" class="level-2-block" /><rect x="460.24000000000007" y="117.6" width="8.86" height="8.86" rx="2" ry="2" class="level-2-block" /><rect x="460.24000000000007" y="129.12" width="8.86" height="8.86" rx="2" ry="2" class="level-2-block" /></g><g x="471.76000000000005" y="60"><rect x="471.76000000000005" y="60.0" width="8.86" height="8.86" rx="2" ry="2" class="level-2-block" /><rect x="471.76000000000005" y="71.52" width="8.86" height="8.86" rx="2" ry="2" class="level-2-block" /><rect x="471.76000000000005" y="83.03999999999999" width="8.86" height="8.86" rx="2" ry="2" class="level-2-block" /><rect x="471.76000000000005" y="94.56" width="8.86" height="8.86" rx="2" ry="2" class="level-2-block" /><rect x="471.76000000000005" y="106.08" width="8.86" height="8.86" rx="2" ry="2" class="level-2-block" /><rect x="471.76000000000005" y="117.6" width="8.86" height="8.86" rx="2" ry="2" class="level-2-block" /><rect x="471.76000000000005" y="129.12" width="8.86" height="8.86" rx="2" ry="2" class="level-2-block" /></g><g x="483.28000000000003" y="60"><rect x="483.28000000000003" y="60.0" width="8.86" height="8.86" rx="2" ry="2" class="level-2-block" /><rect x="483.28000000000003" y="71.52" width="8.86" height="8.86" rx="2" ry="2" class="level-2-block" /><rect x="483.28000000000003" y="83.03999999999999" width="8.86" height="8.86" rx="2" ry="2" class="level-2-block" /><rect x="483.28000000000003" y="94.56" width="8.86" height="8.86" rx="2" ry="2" class="level-2-block" /><rect x="483.28000000000003" y="106.08" width="8.86" height="8.86" rx="2" ry="2" class="level-2-block" /><rect x="483.28000000000003" y="117.6" width="8.86" height="8.86" rx="2" ry="2" class="level-2-block" /><rect x="483.28000000000003" y="129.12" width="8.86" height="8.86" rx="2" ry="2" class="level-2-block" /></g><g x="494.80000000000007" y="60"><rect x="494.80000000000007" y="60.0" width="8.86" height="8.86" rx="2" ry="2" class="level-2-block" /></g>   <text x="437.20000000000005" y="155" class="light-gray state">Apr</text></g></g><g x="508.32000000000005" y="60"><g x="508.32000000000005" y="60"><g x="508.32000000000005" y="60"><rect x="508.32000000000005" y="71.52" width="8.86" height="8.86" rx="2" ry="2" class="level-2-block" /><rect x="508.32000000000005" y="83.03999999999999" width="8.86" height="8.86" rx="2" ry="2" class="level-2-block" /><rect x="508.32000000000005" y="94.56" width="8.86" height="8.86" rx="2" ry="2" class="level-2-block" /><rect x="508.32000000000005" y="106.08" width="8.86" height="8.86" rx="2" ry="2" class="level-2-block" /><rect x="508.32000000000005" y="117.6" width="8.86" height="8.86" rx="2" ry="2" class="level-2-block" /><rect x="508.32000000000005" y="129.12" width="8.86" height="8.86" rx="2" ry="2" class="level-2-block" /></g><g x="519.84" y="60"><rect x="519.84" y="60.0" width="8.86" height="8.86" rx="2" ry="2" class="level-2-block" /><rect x="519.84" y="71.52" width="8.86" height="8.86" rx="2" ry="2" class="level-2-block" /><rect x="519.84" y="83.03999999999999" width="8.86" height="8.86" rx="2" ry="2" class="level-2-block" /><rect x="519.84" y="94.56" width="8.86" height="8.86" rx="2" ry="2" class="level-2-block" /><rect x="519.84" y="106.08" width="8.86" height="8.86" rx="2" ry="2" class="level-2-block" /><rect x="519.84" y="117.6" width="8.86" height="8.86" rx="2" ry="2" class="level-2-block" /><rect x="519.84" y="129.12" width="8.86" height="8.86" rx="2" ry="2" class="level-2-block" /></g><g x="531.36" y="60"><rect x="531.36" y="60.0" width="8.86" height="8.86" rx="2" ry="2" class="level-2-block" /><rect x="531.36" y="71.52" width="8.86" height="8.86" rx="2" ry="2" class="level-2-block" /><rect x="531.36" y="83.03999999999999" width="8.86" height="8.86" rx="2" ry="2" class="level-2-block" /><rect x="531.36" y="94.56" width="8.86" height="8.86" rx="2" ry="2" class="level-2-block" /><rect x="531.36" y="106.08" width="8.86" height="8.86" rx="2" ry="2" class="level-2-block" /><rect x="531.36" y="117.6" width="8.86" height="8.86" rx="2" ry="2" class="level-2-block" /><rect x="531.36" y="129.12" width="8.86" height="8.86" rx="2" ry="2" class="level-2-block" /></g><g x="542.8800000000001" y="60"><rect x="542.8800000000001" y="60.0" width="8.86" height="8.86" rx="2" ry="2" class="level-2-block" /><rect x="542.8800000000001" y="71.52" width="8.86" height="8.86" rx="2" ry="2" class="level-2-block" /><rect x="542.8800000000001" y="83.03999999999999" width="8.86" height="8.86" rx="2" ry="2" class="level-2-block" /><rect x="542.8800000000001" y="94.56" width="8.86" height="8.86" rx="2" ry="2" class="level-2-block" /><rect x="542.8800000000001" y="106.08" width="8.86" height="8.86" rx="2" ry="2" class="level-2-block" /><rect x="542.8800000000001" y="117.6" width="8.86" height="8.86" rx="2" ry="2" class="level-2-block" /><rect x="542.8800000000001" y="129.12" width="8.86" height="8.86" rx="2" ry="2" class="level-2-block" /></g><g x="554.4000000000001" y="60"><rect x="554.4000000000001" y="60.0" width="8.86" height="8.86" rx="2" ry="2" class="level-2-block" /><rect x="554.4000000000001" y="71.52" width="8.86" height="8.86" rx="2" ry="2" class="level-2-block" /><rect x="554.4000000000001" y="83.03999999999999" width="8.86" height="8.86" rx="2" ry="2" class="level-2-block" /><rect x="554.4000000000001" y="94.56" width="8.86" height="8.86" rx="2" ry="2" class="level-2-block" /></g>   <text x="508.32000000000005" y="155" class="light-gray state">May</text></g></g><g x="567.9200000000001" y="60"><g x="567.9200000000001" y="60"><g x="567.9200000000001" y="60"><rect x="567.9200000000001" y="106.08" width="8.86" height="8.86" rx="2" ry="2" class="level-2-block" /><rect x="567.9200000000001" y="117.6" width="8.86" height="8.86" rx="2" ry="2" class="level-2-block" /><rect x="567.9200000000001" y="129.12" width="8.86" height="8.86" rx="2" ry="2" class="level-2-block" /></g><g x="579.44" y="60"><rect x="579.44" y="60.0" width="8.86" height="8.86" rx="2" ry="2" class="level-2-block" /><rect x="579.44" y="71.52" width="8.86" height="8.86" rx="2" ry="2" class="level-2-block" /><rect x="579.44" y="83.03999999999999" width="8.86" height="8.86" rx="2" ry="2" class="level-2-block" /><rect x="579.44" y="94.56" width="8.86" height="8.86" rx="2" ry="2" class="level-2-block" /><rect x="579.44" y="106.08" width="8.86" height="8.86" rx="2" ry="2" class="level-2-block" /><rect x="579.44" y="117.6" width="8.86" height="8.86" rx="2" ry="2" class="level-2-block" /><rect x="579.44" y="129.12" width="8.86" height="8.86" rx="2" ry="2" class="level-2-block" /></g><g x="590.96" y="60"><rect x="590.96" y="60.0" width="8.86" height="8.86" rx="2" ry="2" class="level-2-block" /><rect x="590.96" y="71.52" width="8.86" height="8.86" rx="2" ry="2" class="level-2-block" /><rect x="590.96" y="83.03999999999999" width="8.86" height="8.86" rx="2" ry="2" class="level-2-block" /><rect x="590.96" y="94.56" width="8.86" height="8.86" rx="2" ry="2" class="level-2-block" /><rect x="590.96" y="106.08" width="8.86" height="8.86" rx="2" ry="2" class="level-2-block" /><rect x="590.96" y="117.6" width="8.86" height="8.86" rx="2" ry="2" class="level-2-block" /><rect x="590.96" y="129.12" width="8.86" height="8.86" rx="2" ry="2" class="level-2-block" /></g><g x="602.48" y="60"><rect x="602.48" y="60.0" width="8.86" height="8.86" rx="2" ry="2" class="level-2-block" /><rect x="602.48" y="71.52" width="8.86" height="8.86" rx="2" ry="2" class="level-2-block" /><rect x="602.48" y="83.03999999999999" width="8.86" height="8.86" rx="2" ry="2" class="level-2-block" /><rect x="602.48" y="94.56" width="8.86" height="8.86" rx="2" ry="2" class="level-2-block" /><rect x="602.48" y="106.08" width="8.86" height="8.86" rx="2" ry="2" class="level-2-block" /><rect x="602.48" y="117.6" width="8.86" height="8.86" rx="2" ry="2" class="level-2-block" /><rect x="602.48" y="129.12" width="8.86" height="8.86" rx="2" ry="2" class="level-2-block" /></g><g x="614.0000000000001" y="60"><rect x="614.0000000000001" y="60.0" width="8.86" height="8.86" rx="2" ry="2" class="level-2-block" /><rect x="614.0000000000001" y="71.52" width="8.86" height="8.86" rx="2" ry="2" class="level-2-block" /><rect x="614.0000000000001" y="83.03999999999999" width="8.86" height="8.86" rx="2" ry="2" class="level-2-block" /><rect x="614.0000000000001" y="94.56" width="8.86" height="8.86" rx="2" ry="2" class="level-2-block" /><rect x="614.0000000000001" y="106.08" width="8.86" height="8.86" rx="2" ry="2" class="level-2-block" /><rect x="614.0000000000001" y="117.6" width="8.86" height="8.86" rx="2" ry="2" class="level-2-block" /></g>   <text x="567.9200000000001" y="155" class="light-gray state">Jun</text></g></g><g x="627.5200000000001" y="60"><g x="627.5200000000001" y="60"><g x="627.5200000000001" y="60"><rect x="627.5200000000001" y="129.12" width="8.86" height="8.86" rx="2" ry="2" class="level-2-block" /></g><g x="639.0400000000001" y="60"><rect x="639.0400000000001" y="60.0" width="8.86" height="8.86" rx="2" ry="2" class="level-2-block" /><rect x="639.0400000000001" y="71.52" width="8.86" height="8.86" rx="2" ry="2" class="level-2-block" /><rect x="639.0400000000001" y="83.03999999999999" width="8.86" height="8.86" rx="2" ry="2" class="level-2-block" /><rect x="639.0400000000001" y="94.56" width="8.86" height="8.86" rx="2" ry="2" class="level-2-block" /><rect x="639.0400000000001" y="106.08" width="8.86" height="8.86" rx="2" ry="2" class="level-2-block" /><rect x="639.0400000000001" y="117.6" width="8.86" height="8.86" rx="2" ry="2" class="level-2-block" /><rect x="639.0400000000001" y="129.12" width="8.86" height="8.86" rx="2" ry="2" class="level-2-block" /></g><g x="650.5600000000001" y="60"><rect x="650.5600000000001" y="60.0" width="8.86" height="8.86" rx="2" ry="2" class="level-2-block" /><rect x="650.5600000000001" y="71.52" width="8.86" height="8.86" rx="2" ry="2" class="level-1-block" /><rect x="650.5600000000001" y="83.03999999999999" width="8.86" height="8.86" rx="2" ry="2" class="level-2-block" /><rect x="650.5600000000001" y="94.56" width="8.86" height="8.86" rx="2" ry="2" class="level-2-block" /><rect x="650.5600000000001" y="106.08" width="8.86" height="8.86" rx="2" ry="2" class="level-2-block" /><rect x="650.5600000000001" y="117.6" width="8.86" height="8.86" rx="2" ry="2" class="level-2-block" /><rect x="650.5600000000001" y="129.12" width="8.86" height="8.86" rx="2" ry="2" class="level-2-block" /></g><g x="662.0800000000002" y="60"><rect x="662.0800000000002" y="60.0" width="8.86" height="8.86" rx="2" ry="2" class="level-2-block" /><rect x="662.0800000000002" y="71.52" width="8.86" height="8.86" rx="2" ry="2" class="level-2-block" /><rect x="662.0800000000002" y="83.03999999999999" width="8.86" height="8.86" rx="2" ry="2" class="level-2-block" /><rect x="662.0800000000002" y="94.56" width="8.86" height="8.86" rx="2" ry="2" class="level-2-block" /><rect x="662.0800000000002" y="106.08" width="8.86" height="8.86" rx="2" ry="2" class="level-2-block" /><rect x="662.0800000000002" y="117.6" width="8.86" height="8.86" rx="2" ry="2" class="level-2-block" /><rect x="662.0800000000002" y="129.12" width="8.86" height="8.86" rx="2" ry="2" class="level-2-block" /></g><g x="673.6000000000001" y="60"><rect x="673.6000000000001" y="60.0" width="8.86" height="8.86" rx="2" ry="2" class="level-2-block" /><rect x="673.6000000000001" y="71.52" width="8.86" height="8.86" rx="2" ry="2" class="level-2-block" /><rect x="673.6000000000001" y="83.03999999999999" width="8.86" height="8.86" rx="2" ry="2" class="level-2-block" /><rect x="673.6000000000001" y="94.56" width="8.86" height="8.86" rx="2" ry="2" class="level-2-block" /><rect x="673.6000000000001" y="106.08" width="8.86" height="8.86" rx="2" ry="2" class="level-2-block" /><rect x="673.6000000000001" y="117.6" width="8.86" height="8.86" rx="2" ry="2" class="level-2-block" /><rect x="673.6000000000001" y="129.12" width="8.86" height="8.86" rx="2" ry="2" class="level-2-block" /></g><g x="685.1200000000001" y="60"><rect x="685.1200000000001" y="60.0" width="8.86" height="8.86" rx="2" ry="2" class="level-2-block" /><rect x="685.1200000000001" y="71.52" width="8.86" height="8.86" rx="2" ry="2" class="level-2-block" /></g>   <text x="627.5200000000001" y="155" class="light-gray state">Jul</text></g></g><g x="698.6400000000001" y="60"><g x="698.6400000000001" y="60"><g x="698.6400000000001" y="60"><rect x="698.6400000000001" y="83.03999999999999" width="8.86" height="8.86" rx="2" ry="2" class="level-2-block" /><rect x="698.6400000000001" y="94.56" width="8.86" height="8.86" rx="2" ry="2" class="level-2-block" /><rect x="698.6400000000001" y="106.08" width="8.86" height="8.86" rx="2" ry="2" class="level-2-block" /><rect x="698.6400000000001" y="117.6" width="8.86" height="8.86" rx="2" ry="2" class="level-2-block" /><rect x="698.6400000000001" y="129.12" width="8.86" height="8.86" rx="2" ry="2" class="level-2-block" /></g><g x="710.1600000000001" y="60"><rect x="710.1600000000001" y="60.0" width="8.86" height="8.86" rx="2" ry="2" class="level-2-block" /><rect x="710.1600000000001" y="71.52" width="8.86" height="8.86" rx="2" ry="2" class="level-2-block" /><rect x="710.1600000000001" y="83.03999999999999" width="8.86" height="8.86" rx="2" ry="2" class="level-2-block" /><rect x="710.1600000000001" y="94.56" width="8.86" height="8.86" rx="2" ry="2" class="level-2-block" /><rect x="710.1600000000001" y="106.08" width="8.86" height="8.86" rx="2" ry="2" class="level-2-block" /><rect x="710.1600000000001" y="117.6" width="8.86" height="8.86" rx="2" ry="2" class="level-2-block" /><rect x="710.1600000000001" y="129.12" width="8.86" height="8.86" rx="2" ry="2" class="level-2-block" /></g><g x="721.6800000000001" y="60"><rect x="721.6800000000001" y="60.0" width="8.86" height="8.86" rx="2" ry="2" class="level-2-block" /><rect x="721.6800000000001" y="71.52" width="8.86" height="8.86" rx="2" ry="2" class="level-2-block" /><rect x="721.6800000000001" y="83.03999999999999" width="8.86" height="8.86" rx="2" ry="2" class="level-2-block" /><rect x="721.6800000000001" y="94.56" width="8.86" height="8.86" rx="2" ry="2" class="level-2-block" /><rect x="721.6800000000001" y="106.08" width="8.86" height="8.86" rx="2" ry="2" class="level-2-block" /><rect x="721.6800000000001" y="117.6" width="8.86" height="8.86" rx="2" ry="2" class="level-2-block" /><rect x="721.6800000000001" y="129.12" width="8.86" height="8.86" rx="2" ry="2" class="level-2-block" /></g><g x="733.2" y="60"><rect x="733.2" y="60.0" width="8.86" height="8.86" rx="2" ry="2" class="level-2-block" /><rect x="733.2" y="71.52" width="8.86" height="8.86" rx="2" ry="2" class="level-2-block" /><rect x="733.2" y="83.03999999999999" width="8.86" height="8.86" rx="2" ry="2" class="level-2-block" /><rect x="733.2" y="94.56" width="8.86" height="8.86" rx="2" ry="2" class="level-2-block" /><rect x="733.2" y="106.08" width="8.86" height="8.86" rx="2" ry="2" class="level-2-block" /><rect x="733.2" y="117.6" width="8.86" height="8.86" rx="2" ry="2" class="level-2-block" /><rect x="733.2" y="129.12" width="8.86" height="8.86" rx="2" ry="2" class="level-2-block" /></g><g x="744.7200000000001" y="60"><rect x="744.7200000000001" y="60.0" width="8.86" height="8.86" rx="2" ry="2" class="level-2-block" /><rect x="744.7200000000001" y="71.52" width="8.86" height="8.86" rx="2" ry="2" class="level-2-block" /><rect x="744.7200000000001" y="83.03999999999999" width="8.86" height="8.86" rx="2" ry="2" class="level-2-block" /><rect x="744.7200000000001" y="94.56" width="8.86" height="8.86" rx="2" ry="2" class="level-2-block" /><rect x="744.7200000000001" y="106.08" width="8.86" height="8.86" rx="2" ry="2" class="level-2-block" /></g>   <text x="698.6400000000001" y="155" class="light-gray state">Aug</text></g></g><g x="758.2400000000001" y="60"><g x="758.2400000000001" y="60"><g x="758.2400000000001" y="60"><rect x="758.2400000000001" y="117.6" width="8.86" height="8.86" rx="2" ry="2" class="level-2-block" /><rect x="758.2400000000001" y="129.12" width="8.86" height="8.86" rx="2" ry="2" class="level-2-block" /></g><g x="769.7600000000001" y="60"><rect x="769.7600000000001" y="60.0" width="8.86" height="8.86" rx="2" ry="2" class="level-2-block" /><rect x="769.7600000000001" y="71.52" width="8.86" height="8.86" rx="2" ry="2" class="level-2-block" /><rect x="769.7600000000001" y="83.03999999999999" width="8.86" height="8.86" rx="2" ry="2" class="level-2-block" /><rect x="769.7600000000001" y="94.56" width="8.86" height="8.86" rx="2" ry="2" class="level-4-block" /><rect x="769.7600000000001" y="106.08" width="8.86" height="8.86" rx="2" ry="2" class="level-2-block" /><rect x="769.7600000000001" y="117.6" width="8.86" height="8.86" rx="2" ry="2" class="level-2-block" /><rect x="769.7600000000001" y="129.12" width="8.86" height="8.86" rx="2" ry="2" class="level-2-block" /></g><g x="781.2800000000001" y="60"><rect x="781.2800000000001" y="60.0" width="8.86" height="8.86" rx="2" ry="2" class="level-2-block" /><rect x="781.2800000000001" y="71.52" width="8.86" height="8.86" rx="2" ry="2" class="level-2-block" /><rect x="781.2800000000001" y="83.03999999999999" width="8.86" height="8.86" rx="2" ry="2" class="level-2-block" /><rect x="781.2800000000001" y="94.56" width="8.86" height="8.86" rx="2" ry="2" class="level-2-block" /><rect x="781.2800000000001" y="106.08" width="8.86" height="8.86" rx="2" ry="2" class="level-2-block" /><rect x="781.2800000000001" y="117.6" width="8.86" height="8.86" rx="2" ry="2" class="level-2-block" /><rect x="781.2800000000001" y="129.12" width="8.86" height="8.86" rx="2" ry="2" class="level-2-block" /></g>   <text x="758.2400000000001" y="155" class="light-gray state">Sep</text></g></g></svg>