<svg version="1.1" height="200" width="830" viewBox="0 0 830 200" xmlns="http://www.w3.org/2000/svg">   <style>*{font-family: "Segoe UI", Tahoma, Geneva, Verdana, sans-serif;}</style>   <style>.title{font-weight: 500;font-size: 1rem;}</style>   <style>.rotate-90{transform: rotate(-90deg);transform-origin: center;transform-box: fill-box;}</style>   <style>.state{font-size: .75rem;}</style>   <style>.light{color: #ffffff;fill: #ffffff;}</style>   <style>.light-gray{color: #eff2f699;fill: #eff2f699;}</style>   <style>.dark-gray{color: #ebebf54d;fill: #ebebf54d;}</style>   <style>.gray{color: #747474;fill: #747474;}</style>   <style>.orange{color: #ffa116;fill: #ffa116;}</style>   <style>.background{color: #404040;fill: #404040;}</style><style>.level-1-block{fill: #ffffff1a;}</style><style>.level-2-block{fill: #2cb55d80;}</style><style>.level-3-block{fill: #2cbb5dff;}</style><style>.level-4-block{fill: #4cc575ff;}</style><style>.level-5-block{fill: #6bcf8eff;}</style>   <rect fill="#404040" x="0" y="0" width="830" height="200" rx="0.5rem"/>   <g text-anchor="start" text-decoration="1" class="title">       <text x="20" y="35">           <tspan class="light">Recent Activity within</tspan>           <tspan class="orange">365 Days</tspan>       </text>   </g><g class="state">   <text x="670" y="35" class="light-gray"> Total solution: </text>   <text x="750" y="35" class="light"> 351 </text>   <text x="678.88" y="180" class="light-gray" text-anchor="end">Less</text><rect x="686.64" y="171" width="8.86" height="8.86" rx="2" ry="2" class="level-1-block"/><rect x="698.16" y="171" width="8.86" height="8.86" rx="2" ry="2" class="level-2-block"/><rect x="709.68" y="171" width="8.86" height="8.86" rx="2" ry="2" class="level-3-block"/><rect x="721.2" y="171" width="8.86" height="8.86" rx="2" ry="2" class="level-4-block"/><rect x="732.72" y="171" width="8.86" height="8.86" rx="2" ry="2" class="level-5-block"/>   <text x="750" y="180" class="light-gray">More</text></g><g x="20" y="60"><g x="20" y="60"><g x="20.0" y="60"><rect x="20.0" y="71.52" width="8.86" height="8.86" rx="2" ry="2" class="level-1-block" /><rect x="20.0" y="83.03999999999999" width="8.86" height="8.86" rx="2" ry="2" class="level-2-block" /><rect x="20.0" y="94.56" width="8.86" height="8.86" rx="2" ry="2" class="level-2-block" /></g>   <text x="20.0" y="155" class="light-gray state">Oct</text></g></g><g x="33.519999999999996" y="60"><g x="33.519999999999996" y="60"><g x="33.519999999999996" y="60"><rect x="33.519999999999996" y="106.08" width="8.86" height="8.86" rx="2" ry="2" class="level-2-block" /><rect x="33.519999999999996" y="117.6" width="8.86" height="8.86" rx="2" ry="2" class="level-2-block" /><rect x="33.519999999999996" y="129.12" width="8.86" height="8.86" rx="2" ry="2" class="level-2-block" /></g><g x="45.03999999999999" y="60"><rect x="45.03999999999999" y="60.0" width="8.86" height="8.86" rx="2" ry="2" class="level-2-block" /><rect x="45.03999999999999" y="71.52" width="8.86" height="8.86" rx="2" ry="2" class="level-2-block" /><rect x="45.03999999999999" y="83.03999999999999" width="8.86" height="8.86" rx="2" ry="2" class="level-2-block" /><rect x="45.03999999999999" y="94.56" width="8.86" height="8.86" rx="2" ry="2" class="level-2-block" /><rect x="45.03999999999999" y="106.08" width="8.86" height="8.86" rx="2" ry="2" class="level-2-block" /><rect x="45.03999999999999" y="117.6" width="8.86" height="8.86" rx="2" ry="2" class="level-2-block" /><rect x="45.03999999999999" y="129.12" width="8.86" height="8.86" rx="2" ry="2" class="level-2-block" /></g><g x="56.559999999999995" y="60"><rect x="56.559999999999995" y="60.0" width="8.86" height="8.86" rx="2" ry="2" class="level-1-block" /><rect x="56.559999999999995" y="71.52" width="8.86" height="8.86" rx="2" ry="2" class="level-1-block" /><rect x="56.559999999999995" y="83.03999999999999" width="8.86" height="8.86" rx="2" ry="2" class="level-5-block" /><rect x="56.559999999999995" y="94.56" width="8.86" height="8.86" rx="2" ry="2" class="level-1-block" /><rect x="56.559999999999995" y="106.08" width="8.86" height="8.86" rx="2" ry="2" class="level-5-block" /><rect x="56.559999999999995" y="117.6" width="8.86" height="8.86" rx="2" ry="2" class="level-2-block" /><rect x="56.559999999999995" y="129.12" width="8.86" height="8.86" rx="2" ry="2" class="level-1-block" /></g><g x="68.08" y="60"><rect x="68.08" y="60.0" width="8.86" height="8.86" rx="2" ry="2" class="level-2-block" /><rect x="68.08" y="71.52" width="8.86" height="8.86" rx="2" ry="2" class="level-2-block" /><rect x="68.08" y="83.03999999999999" width="8.86" height="8.86" rx="2" ry="2" class="level-2-block" /><rect x="68.08" y="94.56" width="8.86" height="8.86" rx="2" ry="2" class="level-2-block" /><rect x="68.08" y="106.08" width="8.86" height="8.86" rx="2" ry="2" class="level-2-block" /><rect x="68.08" y="117.6" width="8.86" height="8.86" rx="2" ry="2" class="level-2-block" /><rect x="68.08" y="129.12" width="8.86" height="8.86" rx="2" ry="2" class="level-2-block" /></g><g x="79.6" y="60"><rect x="79.6" y="60.0" width="8.86" height="8.86" rx="2" ry="2" class="level-2-block" /><rect x="79.6" y="71.52" width="8.86" height="8.86" rx="2" ry="2" class="level-2-block" /><rect x="79.6" y="83.03999999999999" width="8.86" height="8.86" rx="2" ry="2" class="level-2-block" /><rect x="79.6" y="94.56" width="8.86" height="8.86" rx="2" ry="2" class="level-2-block" /><rect x="79.6" y="106.08" width="8.86" height="8.86" rx="2" ry="2" class="level-1-block" /><rect x="79.6" y="117.6" width="8.86" height="8.86" rx="2" ry="2" class="level-2-block" /></g>   <text x="33.519999999999996" y="155" class="light-gray state">Nov</text></g></g><g x="93.11999999999999" y="60"><g x="93.11999999999999" y="60"><g x="93.11999999999999" y="60"><rect x="93.11999999999999" y="129.12" width="8.86" height="8.86" rx="2" ry="2" class="level-2-block" /></g><g x="104.63999999999999" y="60"><rect x="104.63999999999999" y="60.0" width="8.86" height="8.86" rx="2" ry="2" class="level-2-block" /><rect x="104.63999999999999" y="71.52" width="8.86" height="8.86" rx="2" ry="2" class="level-2-block" /><rect x="104.63999999999999" y="83.03999999999999" width="8.86" height="8.86" rx="2" ry="2" class="level-2-block" /><rect x="104.63999999999999" y="94.56" width="8.86" height="8.86" rx="2" ry="2" class="level-2-block" /><rect x="104.63999999999999" y="106.08" width="8.86" height="8.86" rx="2" ry="2" class="level-2-block" /><rect x="104.63999999999999" y="117.6" width="8.86" height="8.86" rx="2" ry="2" class="level-2-block" /><rect x="104.63999999999999" y="129.12" width="8.86" height="8.86" rx="2" ry="2" class="level-2-block" /></g><g x="116.16" y="60"><rect x="116.16" y="60.0" width="8.86" height="8.86" rx="2" ry="2" class="level-2-block" /><rect x="116.16" y="71.52" width="8.86" height="8.86" rx="2" ry="2" class="level-2-block" /><rect x="116.16" y="83.03999999999999" width="8.86" height="8.86" rx="2" ry="2" class="level-2-block" /><rect x="116.16" y="94.56" width="8.86" height="8.86" rx="2" ry="2" class="level-2-block" /><rect x="116.16" y="106.08" width="8.86" height="8.86" rx="2" ry="2" class="level-2-block" /><rect x="116.16" y="117.6" width="8.86" height="8.86" rx="2" ry="2" class="level-2-block" /><rect x="116.16" y="129.12" width="8.86" height="8.86" rx="2" ry="2" class="level-2-block" /></g><g x="127.67999999999999" y="60"><rect x="127.67999999999999" y="60.0" width="8.86" height="8.86" rx="2" ry="2" class="level-2-block" /><rect x="127.67999999999999" y="71.52" width="8.86" height="8.86" rx="2" ry="2" class="level-2-block" /><rect x="127.67999999999999" y="83.03999999999999" width="8.86" height="8.86" rx="2" ry="2" class="level-2-block" /><rect x="127.67999999999999" y="94.56" width="8.86" height="8.86" rx="2" ry="2" class="level-2-block" /><rect x="127.67999999999999" y="106.08" width="8.86" height="8.86" rx="2" ry="2" class="level-2-block" /><rect x="127.67999999999999" y="117.6" width="8.86" height="8.86" rx="2" ry="2" class="level-2-block" /><rect x="127.67999999999999" y="129.12" width="8.86" height="8.86" rx="2" ry="2" class="level-2-block" /></g><g x="139.2" y="60"><rect x="139.2" y="60.0" width="8.86" height="8.86" rx="2" ry="2" class="level-2-block" /><rect x="139.2" y="71.52" width="8.86" height="8.86" rx="2" ry="2" class="level-2-block" /><rect x="139.2" y="83.03999999999999" width="8.86" height="8.86" rx="2" ry="2" class="level-1-block" /><rect x="139.2" y="94.56" width="8.86" height="8.86" rx="2" ry="2" class="level-2-block" /><rect x="139.2" y="106.08" width="8.86" height="8.86" rx="2" ry="2" class="level-2-block" /><rect x="139.2" y="117.6" width="8.86" height="8.86" rx="2" ry="2" class="level-2-block" /><rect x="139.2" y="129.12" width="8.86" height="8.86" rx="2" ry="2" class="level-2-block" /></g><g x="150.71999999999997" y="60"><rect x="150.71999999999997" y="60.0" width="8.86" height="8.86" rx="2" ry="2" class="level-1-block" /><rect x="150.71999999999997" y="71.52" width="8.86" height="8.86" rx="2" ry="2" class="level-2-block" /></g>   <text x="93.11999999999999" y="155" class="light-gray state">Dec</text></g></g><g x="164.24" y="60"><g x="164.24" y="60"><g x="164.24" y="60"><rect x="164.24" y="83.03999999999999" width="8.86" height="8.86" rx="2" ry="2" class="level-2-block" /><rect x="164.24" y="94.56" width="8.86" height="8.86" rx="2" ry="2" class="level-2-block" /><rect x="164.24" y="106.08" width="8.86" height="8.86" rx="2" ry="2" class="level-2-block" /><rect x="164.24" y="117.6" width="8.86" height="8.86" rx="2" ry="2" class="level-2-block" /><rect x="164.24" y="129.12" width="8.86" height="8.86" rx="2" ry="2" class="level-2-block" /></g><g x="175.76000000000002" y="60"><rect x="175.76000000000002" y="60.0" width="8.86" height="8.86" rx="2" ry="2" class="level-2-block" /><rect x="175.76000000000002" y="71.52" width="8.86" height="8.86" rx="2" ry="2" class="level-2-block" /><rect x="175.76000000000002" y="83.03999999999999" width="8.86" height="8.86" rx="2" ry="2" class="level-2-block" /><rect x="175.76000000000002" y="94.56" width="8.86" height="8.86" rx="2" ry="2" class="level-2-block" /><rect x="175.76000000000002" y="106.08" width="8.86" height="8.86" rx="2" ry="2" class="level-2-block" /><rect x="175.76000000000002" y="117.6" width="8.86" height="8.86" rx="2" ry="2" class="level-2-block" /><rect x="175.76000000000002" y="129.12" width="8.86" height="8.86" rx="2" ry="2" class="level-2-block" /></g><g x="187.28" y="60"><rect x="187.28" y="60.0" width="8.86" height="8.86" rx="2" ry="2" class="level-2-block" /><rect x="187.28" y="71.52" width="8.86" height="8.86" rx="2" ry="2" class="level-2-block" /><rect x="187.28" y="83.03999999999999" width="8.86" height="8.86" rx="2" ry="2" class="level-2-block" /><rect x="187.28" y="94.56" width="8.86" height="8.86" rx="2" ry="2" class="level-2-block" /><rect x="187.28" y="106.08" width="8.86" height="8.86" rx="2" ry="2" class="level-2-block" /><rect x="187.28" y="117.6" width="8.86" height="8.86" rx="2" ry="2" class="level-2-block" /><rect x="187.28" y="129.12" width="8.86" height="8.86" rx="2" ry="2" class="level-2-block" /></g><g x="198.8" y="60"><rect x="198.8" y="60.0" width="8.86" height="8.86" rx="2" ry="2" class="level-1-block" /><rect x="198.8" y="71.52" width="8.86" height="8.86" rx="2" ry="2" class="level-2-block" /><rect x="198.8" y="83.03999999999999" width="8.86" height="8.86" rx="2" ry="2" class="level-1-block" /><rect x="198.8" y="94.56" width="8.86" height="8.86" rx="2" ry="2" class="level-2-block" /><rect x="198.8" y="106.08" width="8.86" height="8.86" rx="2" ry="2" class="level-2-block" /><rect x="198.8" y="117.6" width="8.86" height="8.86" rx="2" ry="2" class="level-2-block" /><rect x="198.8" y="129.12" width="8.86" height="8.86" rx="2" ry="2" class="level-1-block" /></g><g x="210.32" y="60"><rect x="210.32" y="60.0" width="8.86" height="8.86" rx="2" ry="2" class="level-2-block" /><rect x="210.32" y="71.52" width="8.86" height="8.86" rx="2" ry="2" class="level-2-block" /><rect x="210.32" y="83.03999999999999" width="8.86" height="8.86" rx="2" ry="2" class="level-2-block" /><rect x="210.32" y="94.56" width="8.86" height="8.86" rx="2" ry="2" class="level-2-block" /><rect x="210.32" y="106.08" width="8.86" height="8.86" rx="2" ry="2" class="level-2-block" /></g>   <text x="164.24" y="155" class="light-gray state">Jan</text></g></g><g x="223.84" y="60"><g x="223.84" y="60"><g x="223.84" y="60"><rect x="223.84" y="117.6" width="8.86" height="8.86" rx="2" ry="2" class="level-2-block" /><rect x="223.84" y="129.12" width="8.86" height="8.86" rx="2" ry="2" class="level-2-block" /></g><g x="235.36" y="60"><rect x="235.36" y="60.0" width="8.86" height="8.86" rx="2" ry="2" class="level-2-block" /><rect x="235.36" y="71.52" width="8.86" height="8.86" rx="2" ry="2" class="level-2-block" /><rect x="235.36" y="83.03999999999999" width="8.86" height="8.86" rx="2" ry="2" class="level-2-block" /><rect x="235.36" y="94.56" width="8.86" height="8.86" rx="2" ry="2" class="level-2-block" /><rect x="235.36" y="106.08" width="8.86" height="8.86" rx="2" ry="2" class="level-2-block" /><rect x="235.36" y="117.6" width="8.86" height="8.86" rx="2" ry="2" class="level-2-block" /><rect x="235.36" y="129.12" width="8.86" height="8.86" rx="2" ry="2" class="level-2-block" /></g><g x="246.88" y="60"><rect x="246.88" y="60.0" width="8.86" height="8.86" rx="2" ry="2" class="level-2-block" /><rect x="246.88" y="71.52" width="8.86" height="8.86" rx="2" ry="2" class="level-2-block" /><rect x="246.88" y="83.03999999999999" width="8.86" height="8.86" rx="2" ry="2" class="level-2-block" /><rect x="246.88" y="94.56" width="8.86" height="8.86" rx="2" ry="2" class="level-2-block" /><rect x="246.88" y="106.08" width="8.86" height="8.86" rx="2" ry="2" class="level-2-block" /><rect x="246.88" y="117.6" width="8.86" height="8.86" rx="2" ry="2" class="level-2-block" /><rect x="246.88" y="129.12" width="8.86" height="8.86" rx="2" ry="2" class="level-2-block" /></g><g x="258.4" y="60"><rect x="258.4" y="60.0" width="8.86" height="8.86" rx="2" ry="2" class="level-2-block" /><rect x="258.4" y="71.52" width="8.86" height="8.86" rx="2" ry="2" class="level-2-block" /><rect x="258.4" y="83.03999999999999" width="8.86" height="8.86" rx="2" ry="2" class="level-2-block" /><rect x="258.4" y="94.56" width="8.86" height="8.86" rx="2" ry="2" class="level-2-block" /><rect x="258.4" y="106.08" width="8.86" height="8.86" rx="2" ry="2" class="level-2-block" /><rect x="258.4" y="117.6" width="8.86" height="8.86" rx="2" ry="2" class="level-1-block" /><rect x="258.4" y="129.12" width="8.86" height="8.86" rx="2" ry="2" class="level-2-block" /></g><g x="269.92" y="60"><rect x="269.92" y="60.0" width="8.86" height="8.86" rx="2" ry="2" class="level-2-block" /><rect x="269.92" y="71.52" width="8.86" height="8.86" rx="2" ry="2" class="level-2-block" /><rect x="269.92" y="83.03999999999999" width="8.86" height="8.86" rx="2" ry="2" class="level-2-block" /><rect x="269.92" y="94.56" width="8.86" height="8.86" rx="2" ry="2" class="level-2-block" /><rect x="269.92" y="106.08" width="8.86" height="8.86" rx="2" ry="2" class="level-2-block" /><rect x="269.92" y="117.6" width="8.86" height="8.86" rx="2" ry="2" class="level-2-block" /></g>   <text x="223.84" y="155" class="light-gray state">Feb</text></g></g><g x="283.44" y="60"><g x="283.44" y="60"><g x="283.44" y="60"><rect x="283.44" y="129.12" width="8.86" height="8.86" rx="2" ry="2" class="level-2-block" /></g><g x="294.96" y="60"><rect x="294.96" y="60.0" width="8.86" height="8.86" rx="2" ry="2" class="level-2-block" /><rect x="294.96" y="71.52" width="8.86" height="8.86" rx="2" ry="2" class="level-2-block" /><rect x="294.96" y="83.03999999999999" width="8.86" height="8.86" rx="2" ry="2" class="level-2-block" /><rect x="294.96" y="94.56" width="8.86" height="8.86" rx="2" ry="2" class="level-2-block" /><rect x="294.96" y="106.08" width="8.86" height="8.86" rx="2" ry="2" class="level-2-block" /><rect x="294.96" y="117.6" width="8.86" height="8.86" rx="2" ry="2" class="level-2-block" /><rect x="294.96" y="129.12" width="8.86" height="8.86" rx="2" ry="2" class="level-2-block" /></g><g x="306.48" y="60"><rect x="306.48" y="60.0" width="8.86" height="8.86" rx="2" ry="2" class="level-2-block" /><rect x="306.48" y="71.52" width="8.86" height="8.86" rx="2" ry="2" class="level-2-block" /><rect x="306.48" y="83.03999999999999" width="8.86" height="8.86" rx="2" ry="2" class="level-2-block" /><rect x="306.48" y="94.56" width="8.86" height="8.86" rx="2" ry="2" class="level-2-block" /><rect x="306.48" y="106.08" width="8.86" height="8.86" rx="2" ry="2" class="level-2-block" /><rect x="306.48" y="117.6" width="8.86" height="8.86" rx="2" ry="2" class="level-2-block" /><rect x="306.48" y="129.12" width="8.86" height="8.86" rx="2" ry="2" class="level-2-block" /></g><g x="318.0" y="60"><rect x="318.0" y="60.0" width="8.86" height="8.86" rx="2" ry="2" class="level-2-block" /><rect x="318.0" y="71.52" width="8.86" height="8.86" rx="2" ry="2" class="level-2-block" /><rect x="318.0" y="83.03999999999999" width="8.86" height="8.86" rx="2" ry="2" class="level-2-block" /><rect x="318.0" y="94.56" width="8.86" height="8.86" rx="2" ry="2" class="level-2-block" /><rect x="318.0" y="106.08" width="8.86" height="8.86" rx="2" ry="2" class="level-2-block" /><rect x="318.0" y="117.6" width="8.86" height="8.86" rx="2" ry="2" class="level-2-block" /><rect x="318.0" y="129.12" width="8.86" height="8.86" rx="2" ry="2" class="level-2-block" /></g><g x="329.52" y="60"><rect x="329.52" y="60.0" width="8.86" height="8.86" rx="2" ry="2" class="level-2-block" /><rect x="329.52" y="71.52" width="8.86" height="8.86" rx="2" ry="2" class="level-2-block" /><rect x="329.52" y="83.03999999999999" width="8.86" height="8.86" rx="2" ry="2" class="level-2-block" /><rect x="329.52" y="94.56" width="8.86" height="8.86" rx="2" ry="2" class="level-2-block" /><rect x="329.52" y="106.08" width="8.86" height="8.86" rx="2" ry="2" class="level-2-block" /><rect x="329.52" y="117.6" width="8.86" height="8.86" rx="2" ry="2" class="level-2-block" /><rect x="329.52" y="129.12" width="8.86" height="8.86" rx="2" ry="2" class="level-2-block" /></g><g x="341.03999999999996" y="60"><rect x="341.03999999999996" y="60.0" width="8.86" height="8.86" rx="2" ry="2" class="level-2-block" /><rect x="341.03999999999996" y="71.52" width="8.86" height="8.86" rx="2" ry="2" class="level-2-block" /></g>   <text x="283.44" y="155" class="light-gray state">Mar</text></g></g><g x="354.56" y="60"><g x="354.56" y="60"><g x="354.56" y="60"><rect x="354.56" y="83.03999999999999" width="8.86" height="8.86" rx="2" ry="2" class="level-2-block" /><rect x="354.56" y="94.56" width="8.86" height="8.86" rx="2" ry="2" class="level-2-block" /><rect x="354.56" y="106.08" width="8.86" height="8.86" rx="2" ry="2" class="level-2-block" /><rect x="354.56" y="117.6" width="8.86" height="8.86" rx="2" ry="2" class="level-2-block" /><rect x="354.56" y="129.12" width="8.86" height="8.86" rx="2" ry="2" class="level-2-block" /></g><g x="366.08" y="60"><rect x="366.08" y="60.0" width="8.86" height="8.86" rx="2" ry="2" class="level-2-block" /><rect x="366.08" y="71.52" width="8.86" height="8.86" rx="2" ry="2" class="level-1-block" /><rect x="366.08" y="83.03999999999999" width="8.86" height="8.86" rx="2" ry="2" class="level-5-block" /><rect x="366.08" y="94.56" width="8.86" height="8.86" rx="2" ry="2" class="level-2-block" /><rect x="366.08" y="106.08" width="8.86" height="8.86" rx="2" ry="2" class="level-2-block" /><rect x="366.08" y="117.6" width="8.86" height="8.86" rx="2" ry="2" class="level-2-block" /><rect x="366.08" y="129.12" width="8.86" height="8.86" rx="2" ry="2" class="level-2-block" /></g><g x="377.6" y="60"><rect x="377.6" y="60.0" width="8.86" height="8.86" rx="2" ry="2" class="level-2-block" /><rect x="377.6" y="71.52" width="8.86" height="8.86" rx="2" ry="2" class="level-2-block" /><rect x="377.6" y="83.03999999999999" width="8.86" height="8.86" rx="2" ry="2" class="level-2-block" /><rect x="377.6" y="94.56" width="8.86" height="8.86" rx="2" ry="2" class="level-2-block" /><rect x="377.6" y="106.08" width="8.86" height="8.86" rx="2" ry="2" class="level-2-block" /><rect x="377.6" y="117.6" width="8.86" height="8.86" rx="2" ry="2" class="level-2-block" /><rect x="377.6" y="129.12" width="8.86" height="8.86" rx="2" ry="2" class="level-2-block" /></g><g x="389.12" y="60"><rect x="389.12" y="60.0" width="8.86" height="8.86" rx="2" ry="2" class="level-2-block" /><rect x="389.12" y="71.52" width="8.86" height="8.86" rx="2" ry="2" class="level-2-block" /><rect x="389.12" y="83.03999999999999" width="8.86" height="8.86" rx="2" ry="2" class="level-2-block" /><rect x="389.12" y="94.56" width="8.86" height="8.86" rx="2" ry="2" class="level-2-block" /><rect x="389.12" y="106.08" width="8.86" height="8.86" rx="2" ry="2" class="level-2-block" /><rect x="389.12" y="117.6" width="8.86" height="8.86" rx="2" ry="2" class="level-2-block" /><rect x="389.12" y="129.12" width="8.86" height="8.86" rx="2" ry="2" class="level-2-block" /></g><g x="400.64" y="60"><rect x="400.64" y="60.0" width="8.86" height="8.86" rx="2" ry="2" class="level-2-block" /><rect x="400.64" y="71.52" width="8.86" height="8.86" rx="2" ry="2" class="level-2-block" /><rect x="400.64" y="83.03999999999999" width="8.86" height="8.86" rx="2" ry="2" class="level-2-block" /><rect x="400.64" y="94.56" width="8.86" height="8.86" rx="2" ry="2" class="level-2-block" /></g>   <text x="354.56" y="155" class="light-gray state">Apr</text></g></g><g x="414.15999999999997" y="60"><g x="414.15999999999997" y="60"><g x="414.15999999999997" y="60"><rect x="414.15999999999997" y="106.08" width="8.86" height="8.86" rx="2" ry="2" class="level-2-block" /><rect x="414.15999999999997" y="117.6" width="8.86" height="8.86" rx="2" ry="2" class="level-2-block" /><rect x="414.15999999999997" y="129.12" width="8.86" height="8.86" rx="2" ry="2" class="level-2-block" /></g><g x="425.67999999999995" y="60"><rect x="425.67999999999995" y="60.0" width="8.86" height="8.86" rx="2" ry="2" class="level-2-block" /><rect x="425.67999999999995" y="71.52" width="8.86" height="8.86" rx="2" ry="2" class="level-2-block" /><rect x="425.67999999999995" y="83.03999999999999" width="8.86" height="8.86" rx="2" ry="2" class="level-2-block" /><rect x="425.67999999999995" y="94.56" width="8.86" height="8.86" rx="2" ry="2" class="level-2-block" /><rect x="425.67999999999995" y="106.08" width="8.86" height="8.86" rx="2" ry="2" class="level-2-block" /><rect x="425.67999999999995" y="117.6" width="8.86" height="8.86" rx="2" ry="2" class="level-2-block" /><rect x="425.67999999999995" y="129.12" width="8.86" height="8.86" rx="2" ry="2" class="level-2-block" /></g><g x="437.2" y="60"><rect x="437.2" y="60.0" width="8.86" height="8.86" rx="2" ry="2" class="level-2-block" /><rect x="437.2" y="71.52" width="8.86" height="8.86" rx="2" ry="2" class="level-2-block" /><rect x="437.2" y="83.03999999999999" width="8.86" height="8.86" rx="2" ry="2" class="level-2-block" /><rect x="437.2" y="94.56" width="8.86" height="8.86" rx="2" ry="2" class="level-2-block" /><rect x="437.2" y="106.08" width="8.86" height="8.86" rx="2" ry="2" class="level-2-block" /><rect x="437.2" y="117.6" width="8.86" height="8.86" rx="2" ry="2" class="level-1-block" /><rect x="437.2" y="129.12" width="8.86" height="8.86" rx="2" ry="2" class="level-2-block" /></g><g x="448.71999999999997" y="60"><rect x="448.71999999999997" y="60.0" width="8.86" height="8.86" rx="2" ry="2" class="level-2-block" /><rect x="448.71999999999997" y="71.52" width="8.86" height="8.86" rx="2" ry="2" class="level-2-block" /><rect x="448.71999999999997" y="83.03999999999999" width="8.86" height="8.86" rx="2" ry="2" class="level-2-block" /><rect x="448.71999999999997" y="94.56" width="8.86" height="8.86" rx="2" ry="2" class="level-2-block" /><rect x="448.71999999999997" y="106.08" width="8.86" height="8.86" rx="2" ry="2" class="level-2-block" /><rect x="448.71999999999997" y="117.6" width="8.86" height="8.86" rx="2" ry="2" class="level-2-block" /><rect x="448.71999999999997" y="129.12" width="8.86" height="8.86" rx="2" ry="2" class="level-2-block" /></g><g x="460.23999999999995" y="60"><rect x="460.23999999999995" y="60.0" width="8.86" height="8.86" rx="2" ry="2" class="level-2-block" /><rect x="460.23999999999995" y="71.52" width="8.86" height="8.86" rx="2" ry="2" class="level-2-block" /><rect x="460.23999999999995" y="83.03999999999999" width="8.86" height="8.86" rx="2" ry="2" class="level-2-block" /><rect x="460.23999999999995" y="94.56" width="8.86" height="8.86" rx="2" ry="2" class="level-2-block" /><rect x="460.23999999999995" y="106.08" width="8.86" height="8.86" rx="2" ry="2" class="level-2-block" /><rect x="460.23999999999995" y="117.6" width="8.86" height="8.86" rx="2" ry="2" class="level-2-block" /><rect x="460.23999999999995" y="129.12" width="8.86" height="8.86" rx="2" ry="2" class="level-2-block" /></g>   <text x="414.15999999999997" y="155" class="light-gray state">May</text></g></g><g x="485.28" y="60"><g x="485.28" y="60"><g x="485.28" y="60"><rect x="485.28" y="60.0" width="8.86" height="8.86" rx="2" ry="2" class="level-2-block" /><rect x="485.28" y="71.52" width="8.86" height="8.86" rx="2" ry="2" class="level-2-block" /><rect x="485.28" y="83.03999999999999" width="8.86" height="8.86" rx="2" ry="2" class="level-2-block" /><rect x="485.28" y="94.56" width="8.86" height="8.86" rx="2" ry="2" class="level-2-block" /><rect x="485.28" y="106.08" width="8.86" height="8.86" rx="2" ry="2" class="level-2-block" /><rect x="485.28" y="117.6" width="8.86" height="8.86" rx="2" ry="2" class="level-2-block" /><rect x="485.28" y="129.12" width="8.86" height="8.86" rx="2" ry="2" class="level-2-block" /></g><g x="496.79999999999995" y="60"><rect x="496.79999999999995" y="60.0" width="8.86" height="8.86" rx="2" ry="2" class="level-2-block" /><rect x="496.79999999999995" y="71.52" width="8.86" height="8.86" rx="2" ry="2" class="level-2-block" /><rect x="496.79999999999995" y="83.03999999999999" width="8.86" height="8.86" rx="2" ry="2" class="level-2-block" /><rect x="496.79999999999995" y="94.56" width="8.86" height="8.86" rx="2" ry="2" class="level-2-block" /><rect x="496.79999999999995" y="106.08" width="8.86" height="8.86" rx="2" ry="2" class="level-2-block" /><rect x="496.79999999999995" y="117.6" width="8.86" height="8.86" rx="2" ry="2" class="level-2-block" /><rect x="496.79999999999995" y="129.12" width="8.86" height="8.86" rx="2" ry="2" class="level-2-block" /></g><g x="508.32" y="60"><rect x="508.32" y="60.0" width="8.86" height="8.86" rx="2" ry="2" class="level-2-block" /><rect x="508.32" y="71.52" width="8.86" height="8.86" rx="2" ry="2" class="level-2-block" /><rect x="508.32" y="83.03999999999999" width="8.86" height="8.86" rx="2" ry="2" class="level-2-block" /><rect x="508.32" y="94.56" width="8.86" height="8.86" rx="2" ry="2" class="level-2-block" /><rect x="508.32" y="106.08" width="8.86" height="8.86" rx="2" ry="2" class="level-1-block" /><rect x="508.32" y="117.6" width="8.86" height="8.86" rx="2" ry="2" class="level-2-block" /><rect x="508.32" y="129.12" width="8.86" height="8.86" rx="2" ry="2" class="level-2-block" /></g><g x="519.8399999999999" y="60"><rect x="519.8399999999999" y="60.0" width="8.86" height="8.86" rx="2" ry="2" class="level-2-block" /><rect x="519.8399999999999" y="71.52" width="8.86" height="8.86" rx="2" ry="2" class="level-2-block" /><rect x="519.8399999999999" y="83.03999999999999" width="8.86" height="8.86" rx="2" ry="2" class="level-2-block" /><rect x="519.8399999999999" y="94.56" width="8.86" height="8.86" rx="2" ry="2" class="level-2-block" /><rect x="519.8399999999999" y="106.08" width="8.86" height="8.86" rx="2" ry="2" class="level-2-block" /><rect x="519.8399999999999" y="117.6" width="8.86" height="8.86" rx="2" ry="2" class="level-1-block" /><rect x="519.8399999999999" y="129.12" width="8.86" height="8.86" rx="2" ry="2" class="level-2-block" /></g><g x="531.36" y="60"><rect x="531.36" y="60.0" width="8.86" height="8.86" rx="2" ry="2" class="level-2-block" /><rect x="531.36" y="71.52" width="8.86" height="8.86" rx="2" ry="2" class="level-2-block" /></g>   <text x="485.28" y="155" class="light-gray state">Jun</text></g></g><g x="544.88" y="60"><g x="544.88" y="60"><g x="544.88" y="60"><rect x="544.88" y="83.03999999999999" width="8.86" height="8.86" rx="2" ry="2" class="level-2-block" /><rect x="544.88" y="94.56" width="8.86" height="8.86" rx="2" ry="2" class="level-2-block" /><rect x="544.88" y="106.08" width="8.86" height="8.86" rx="2" ry="2" class="level-2-block" /><rect x="544.88" y="117.6" width="8.86" height="8.86" rx="2" ry="2" class="level-2-block" /><rect x="544.88" y="129.12" width="8.86" height="8.86" rx="2" ry="2" class="level-2-block" /></g><g x="556.4" y="60"><rect x="556.4" y="60.0" width="8.86" height="8.86" rx="2" ry="2" class="level-2-block" /><rect x="556.4" y="71.52" width="8.86" height="8.86" rx="2" ry="2" class="level-2-block" /><rect x="556.4" y="83.03999999999999" width="8.86" height="8.86" rx="2" ry="2" class="level-2-block" /><rect x="556.4" y="94.56" width="8.86" height="8.86" rx="2" ry="2" class="level-2-block" /><rect x="556.4" y="106.08" width="8.86" height="8.86" rx="2" ry="2" class="level-2-block" /><rect x="556.4" y="117.6" width="8.86" height="8.86" rx="2" ry="2" class="level-2-block" /><rect x="556.4" y="129.12" width="8.86" height="8.86" rx="2" ry="2" class="level-1-block" /></g><g x="567.92" y="60"><rect x="567.92" y="60.0" width="8.86" height="8.86" rx="2" ry="2" class="level-5-block" /><rect x="567.92" y="71.52" width="8.86" height="8.86" rx="2" ry="2" class="level-2-block" /><rect x="567.92" y="83.03999999999999" width="8.86" height="8.86" rx="2" ry="2" class="level-2-block" /><rect x="567.92" y="94.56" width="8.86" height="8.86" rx="2" ry="2" class="level-2-block" /><rect x="567.92" y="106.08" width="8.86" height="8.86" rx="2" ry="2" class="level-2-block" /><rect x="567.92" y="117.6" width="8.86" height="8.86" rx="2" ry="2" class="level-2-block" /><rect x="567.92" y="129.12" width="8.86" height="8.86" rx="2" ry="2" class="level-2-block" /></g><g x="579.44" y="60"><rect x="579.44" y="60.0" width="8.86" height="8.86" rx="2" ry="2" class="level-2-block" /><rect x="579.44" y="71.52" width="8.86" height="8.86" rx="2" ry="2" class="level-2-block" /><rect x="579.44" y="83.03999999999999" width="8.86" height="8.86" rx="2" ry="2" class="level-2-block" /><rect x="579.44" y="94.56" width="8.86" height="8.86" rx="2" ry="2" class="level-2-block" /><rect x="579.44" y="106.08" width="8.86" height="8.86" rx="2" ry="2" class="level-2-block" /><rect x="579.44" y="117.6" width="8.86" height="8.86" rx="2" ry="2" class="level-2-block" /><rect x="579.44" y="129.12" width="8.86" height="8.86" rx="2" ry="2" class="level-2-block" /></g><g x="590.96" y="60"><rect x="590.96" y="60.0" width="8.86" height="8.86" rx="2" ry="2" class="level-2-block" /><rect x="590.96" y="71.52" width="8.86" height="8.86" rx="2" ry="2" class="level-2-block" /><rect x="590.96" y="83.03999999999999" width="8.86" height="8.86" rx="2" ry="2" class="level-2-block" /><rect x="590.96" y="94.56" width="8.86" height="8.86" rx="2" ry="2" class="level-2-block" /><rect x="590.96" y="106.08" width="8.86" height="8.86" rx="2" ry="2" class="level-2-block" /></g>   <text x="544.88" y="155" class="light-gray state">Jul</text></g></g><g x="604.48" y="60"><g x="604.48" y="60"><g x="604.48" y="60"><rect x="604.48" y="117.6" width="8.86" height="8.86" rx="2" ry="2" class="level-2-block" /><rect x="604.48" y="129.12" width="8.86" height="8.86" rx="2" ry="2" class="level-2-block" /></g><g x="616.0" y="60"><rect x="616.0" y="60.0" width="8.86" height="8.86" rx="2" ry="2" class="level-2-block" /><rect x="616.0" y="71.52" width="8.86" height="8.86" rx="2" ry="2" class="level-2-block" /><rect x="616.0" y="83.03999999999999" width="8.86" height="8.86" rx="2" ry="2" class="level-2-block" /><rect x="616.0" y="94.56" width="8.86" height="8.86" rx="2" ry="2" class="level-2-block" /><rect x="616.0" y="106.08" width="8.86" height="8.86" rx="2" ry="2" class="level-2-block" /><rect x="616.0" y="117.6" width="8.86" height="8.86" rx="2" ry="2" class="level-2-block" /><rect x="616.0" y="129.12" width="8.86" height="8.86" rx="2" ry="2" class="level-2-block" /></g><g x="627.52" y="60"><rect x="627.52" y="60.0" width="8.86" height="8.86" rx="2" ry="2" class="level-2-block" /><rect x="627.52" y="71.52" width="8.86" height="8.86" rx="2" ry="2" class="level-2-block" /><rect x="627.52" y="83.03999999999999" width="8.86" height="8.86" rx="2" ry="2" class="level-2-block" /><rect x="627.52" y="94.56" width="8.86" height="8.86" rx="2" ry="2" class="level-2-block" /><rect x="627.52" y="106.08" width="8.86" height="8.86" rx="2" ry="2" class="level-2-block" /><rect x="627.52" y="117.6" width="8.86" height="8.86" rx="2" ry="2" class="level-2-block" /><rect x="627.52" y="129.12" width="8.86" height="8.86" rx="2" ry="2" class="level-2-block" /></g><g x="639.04" y="60"><rect x="639.04" y="60.0" width="8.86" height="8.86" rx="2" ry="2" class="level-2-block" /><rect x="639.04" y="71.52" width="8.86" height="8.86" rx="2" ry="2" class="level-2-block" /><rect x="639.04" y="83.03999999999999" width="8.86" height="8.86" rx="2" ry="2" class="level-2-block" /><rect x="639.04" y="94.56" width="8.86" height="8.86" rx="2" ry="2" class="level-2-block" /><rect x="639.04" y="106.08" width="8.86" height="8.86" rx="2" ry="2" class="level-2-block" /><rect x="639.04" y="117.6" width="8.86" height="8.86" rx="2" ry="2" class="level-2-block" /><rect x="639.04" y="129.12" width="8.86" height="8.86" rx="2" ry="2" class="level-2-block" /></g><g x="650.5600000000001" y="60"><rect x="650.5600000000001" y="60.0" width="8.86" height="8.86" rx="2" ry="2" class="level-2-block" /><rect x="650.5600000000001" y="71.52" width="8.86" height="8.86" rx="2" ry="2" class="level-2-block" /><rect x="650.5600000000001" y="83.03999999999999" width="8.86" height="8.86" rx="2" ry="2" class="level-2-block" /><rect x="650.5600000000001" y="94.56" width="8.86" height="8.86" rx="2" ry="2" class="level-2-block" /><rect x="650.5600000000001" y="106.08" width="8.86" height="8.86" rx="2" ry="2" class="level-2-block" /><rect x="650.5600000000001" y="117.6" width="8.86" height="8.86" rx="2" ry="2" class="level-2-block" /><rect x="650.5600000000001" y="129.12" width="8.86" height="8.86" rx="2" ry="2" class="level-2-block" /></g><g x="662.08" y="60"><rect x="662.08" y="60.0" width="8.86" height="8.86" rx="2" ry="2" class="level-2-block" /></g>   <text x="604.48" y="155" class="light-gray state">Aug</text></g></g><g x="675.6" y="60"><g x="675.6" y="60"><g x="675.6" y="60"><rect x="675.6" y="71.52" width="8.86" height="8.86" rx="2" ry="2" class="level-2-block" /><rect x="675.6" y="83.03999999999999" width="8.86" height="8.86" rx="2" ry="2" class="level-2-block" /><rect x="675.6" y="94.56" width="8.86" height="8.86" rx="2" ry="2" class="level-2-block" /><rect x="675.6" y="106.08" width="8.86" height="8.86" rx="2" ry="2" class="level-2-block" /><rect x="675.6" y="117.6" width="8.86" height="8.86" rx="2" ry="2" class="level-1-block" /><rect x="675.6" y="129.12" width="8.86" height="8.86" rx="2" ry="2" class="level-2-block" /></g><g x="687.12" y="60"><rect x="687.12" y="60.0" width="8.86" height="8.86" rx="2" ry="2" class="level-2-block" /><rect x="687.12" y="71.52" width="8.86" height="8.86" rx="2" ry="2" class="level-5-block" /><rect x="687.12" y="83.03999999999999" width="8.86" height="8.86" rx="2" ry="2" class="level-2-block" /><rect x="687.12" y="94.56" width="8.86" height="8.86" rx="2" ry="2" class="level-2-block" /><rect x="687.12" y="106.08" width="8.86" height="8.86" rx="2" ry="2" class="level-2-block" /><rect x="687.12" y="117.6" width="8.86" height="8.86" rx="2" ry="2" class="level-2-block" /><rect x="687.12" y="129.12" width="8.86" height="8.86" rx="2" ry="2" class="level-2-block" /></g><g x="698.64" y="60"><rect x="698.64" y="60.0" width="8.86" height="8.86" rx="2" ry="2" class="level-2-block" /><rect x="698.64" y="71.52" width="8.86" height="8.86" rx="2" ry="2" class="level-2-block" /><rect x="698.64" y="83.03999999999999" width="8.86" height="8.86" rx="2" ry="2" class="level-2-block" /><rect x="698.64" y="94.56" width="8.86" height="8.86" rx="2" ry="2" class="level-2-block" /><rect x="698.64" y="106.08" width="8.86" height="8.86" rx="2" ry="2" class="level-1-block" /><rect x="698.64" y="117.6" width="8.86" height="8.86" rx="2" ry="2" class="level-2-block" /><rect x="698.64" y="129.12" width="8.86" height="8.86" rx="2" ry="2" class="level-2-block" /></g><g x="710.1600000000001" y="60"><rect x="710.1600000000001" y="60.0" width="8.86" height="8.86" rx="2" ry="2" class="level-2-block" /><rect x="710.1600000000001" y="71.52" width="8.86" height="8.86" rx="2" ry="2" class="level-2-block" /><rect x="710.1600000000001" y="83.03999999999999" width="8.86" height="8.86" rx="2" ry="2" class="level-1-block" /><rect x="710.1600000000001" y="94.56" width="8.86" height="8.86" rx="2" ry="2" class="level-5-block" /><rect x="710.1600000000001" y="106.08" width="8.86" height="8.86" rx="2" ry="2" class="level-2-block" /><rect x="710.1600000000001" y="117.6" width="8.86" height="8.86" rx="2" ry="2" class="level-2-block" /><rect x="710.1600000000001" y="129.12" width="8.86" height="8.86" rx="2" ry="2" class="level-2-block" /></g><g x="721.6800000000001" y="60"><rect x="721.6800000000001" y="60.0" width="8.86" height="8.86" rx="2" ry="2" class="level-2-block" /><rect x="721.6800000000001" y="71.52" width="8.86" height="8.86" rx="2" ry="2" class="level-2-block" /><rect x="721.6800000000001" y="83.03999999999999" width="8.86" height="8.86" rx="2" ry="2" class="level-2-block" /></g>   <text x="675.6" y="155" class="light-gray state">Sep</text></g></g><g x="735.2" y="60"><g x="735.2" y="60"><g x="735.2" y="60"><rect x="735.2" y="94.56" width="8.86" height="8.86" rx="2" ry="2" class="level-2-block" /><rect x="735.2" y="106.08" width="8.86" height="8.86" rx="2" ry="2" class="level-2-block" /><rect x="735.2" y="117.6" width="8.86" height="8.86" rx="2" ry="2" class="level-2-block" /><rect x="735.2" y="129.12" width="8.86" height="8.86" rx="2" ry="2" class="level-2-block" /></g><g x="746.72" y="60"><rect x="746.72" y="60.0" width="8.86" height="8.86" rx="2" ry="2" class="level-2-block" /><rect x="746.72" y="71.52" width="8.86" height="8.86" rx="2" ry="2" class="level-2-block" /><rect x="746.72" y="83.03999999999999" width="8.86" height="8.86" rx="2" ry="2" class="level-2-block" /><rect x="746.72" y="94.56" width="8.86" height="8.86" rx="2" ry="2" class="level-2-block" /><rect x="746.72" y="106.08" width="8.86" height="8.86" rx="2" ry="2" class="level-2-block" /><rect x="746.72" y="117.6" width="8.86" height="8.86" rx="2" ry="2" class="level-2-block" /><rect x="746.72" y="129.12" width="8.86" height="8.86" rx="2" ry="2" class="level-2-block" /></g><g x="758.24" y="60"><rect x="758.24" y="60.0" width="8.86" height="8.86" rx="2" ry="2" class="level-2-block" /><rect x="758.24" y="71.52" width="8.86" height="8.86" rx="2" ry="2" class="level-2-block" /><rect x="758.24" y="83.03999999999999" width="8.86" height="8.86" rx="2" ry="2" class="level-2-block" /><rect x="758.24" y="94.56" width="8.86" height="8.86" rx="2" ry="2" class="level-2-block" /><rect x="758.24" y="106.08" width="8.86" height="8.86" rx="2" ry="2" class="level-2-block" /><rect x="758.24" y="117.6" width="8.86" height="8.86" rx="2" ry="2" class="level-2-block" /><rect x="758.24" y="129.12" width="8.86" height="8.86" rx="2" ry="2" class="level-2-block" /></g><g x="769.76" y="60"><rect x="769.76" y="60.0" width="8.86" height="8.86" rx="2" ry="2" class="level-2-block" /><rect x="769.76" y="71.52" width="8.86" height="8.86" rx="2" ry="2" class="level-2-block" /><rect x="769.76" y="83.03999999999999" width="8.86" height="8.86" rx="2" ry="2" class="level-2-block" /><rect x="769.76" y="94.56" width="8.86" height="8.86" rx="2" ry="2" class="level-2-block" /><rect x="769.76" y="106.08" width="8.86" height="8.86" rx="2" ry="2" class="level-2-block" /><rect x="769.76" y="117.6" width="8.86" height="8.86" rx="2" ry="2" class="level-2-block" /><rect x="769.76" y="129.12" width="8.86" height="8.86" rx="2" ry="2" class="level-2-block" /></g><g x="781.2800000000001" y="60"><rect x="781.2800000000001" y="60.0" width="8.86" height="8.86" rx="2" ry="2" class="level-2-block" /><rect x="781.2800000000001" y="71.52" width="8.86" height="8.86" rx="2" ry="2" class="level-2-block" /></g>   <text x="735.2" y="155" class="light-gray state">Oct</text></g></g></svg>